<svg width="71" height="70" viewBox="0 0 71 70" fill="none" xmlns="http://www.w3.org/2000/svg">
<circle cx="36" cy="35" r="35" fill="black" fill-opacity="0.2"/>
<path d="M53.6956 37.4331C49.2767 37.4331 45.6929 41.3025 45.6929 46.2578H61.699C61.699 41.3025 58.1148 37.4331 53.6956 37.4331Z" fill="#D5D5D6"/>
<path d="M55.9764 37.7925C55.7309 38.7555 54.8654 39.4685 53.8322 39.4685C52.7713 39.4685 51.8854 38.7172 51.6678 37.7148C48.2307 38.688 45.6929 42.0884 45.6929 46.2579H61.699C61.699 42.1915 59.2844 38.8579 55.9764 37.7925Z" fill="#9A9B9B"/>
<path d="M55.9947 37.7744L53.8335 46.5165H61.6986V44.6929C61.6986 41.2772 59.2487 38.4279 55.9947 37.7744Z" fill="#C5C6C6"/>
<path d="M45.7109 44.6927V46.5162H53.8336L51.3407 37.7905C48.1237 38.4718 45.7109 41.3027 45.7109 44.6927Z" fill="#C5C6C6"/>
<path d="M55.2455 37.9649L53.657 38.4547L52.1455 37.9649V34.8472H55.2455V37.9649Z" fill="#D5D5D6"/>
<path d="M53.8301 46.5166L57.2285 41.163L56.2001 40.669L57.8364 40.1983L58.5284 38.8234C58.5284 38.8234 57.4145 37.9593 55.9913 37.7964C55.6081 39.3234 53.8301 46.5166 53.8301 46.5166Z" fill="#E9E9EA"/>
<path d="M53.8299 46.5164L50.4316 41.1629L51.46 40.6688L49.8239 40.1981L49.0918 38.6603C49.0918 38.6603 50.1961 37.9741 51.6287 37.6333C52.0117 39.1603 53.8299 46.5164 53.8299 46.5164Z" fill="#E9E9EA"/>
<path d="M60.3739 28.3253C60.3739 24.4002 57.3841 21.2183 53.6957 21.2183C50.0073 21.2183 47.0176 24.4002 47.0176 28.3253C47.0176 32.2505 50.0073 35.4325 53.6957 35.4325C57.3841 35.4325 60.3739 32.2505 60.3739 28.3253Z" fill="#393939"/>
<path d="M57.6682 32.9419C56.8413 32.8265 56.2829 31.6385 56.4229 30.2894C56.5613 28.9398 57.3446 27.9375 58.1723 28.0524C58.9987 28.1673 59.5564 29.3549 59.4167 30.7048C59.2781 32.0546 58.4952 33.0557 57.6682 32.9419Z" fill="#D5D5D6"/>
<path d="M47.9745 30.7048C47.835 29.3549 48.3926 28.1673 49.2188 28.0524C50.0468 27.9375 50.8302 28.9398 50.969 30.2894C51.1087 31.6385 50.5498 32.8265 49.7231 32.9419C48.896 33.0556 48.1134 32.0546 47.9745 30.7048Z" fill="#D5D5D6"/>
<path d="M58.6654 29.5057C58.6654 25.4375 56.4401 23.124 53.6955 23.124C50.951 23.124 48.7256 25.4375 48.7256 29.5057C48.7256 33.5742 50.951 36.8727 53.6955 36.8727C56.4401 36.8727 58.6654 33.5742 58.6654 29.5057Z" fill="#E2E2E3"/>
<path d="M57.0571 22.2209C57.0571 20.3519 55.5522 18.8364 53.6958 18.8364C51.8394 18.8364 50.3345 20.3519 50.3345 22.2209C50.3345 24.0896 51.8394 25.6052 53.6958 25.6052C55.5522 25.6052 57.0571 24.0896 57.0571 22.2209Z" fill="#393939"/>
<path d="M59.0734 28.8968C59.0734 28.8847 59.0734 28.9089 59.0734 28.8968C59.0734 25.7409 56.9514 22.4106 53.9809 22.4106C51.0108 22.4106 48.1172 25.7897 48.1172 28.9455C48.1172 28.9577 48.1179 28.9694 48.1179 28.9814C49.0347 27.9394 49.4495 28.1139 50.7359 28.1139C51.7529 31.0664 56.1714 26.5583 59.0734 28.8968Z" fill="#393939"/>
<path d="M49.7259 25.8624C51.9418 24.5015 55.3333 24.463 57.7966 25.6464L58.0595 21.9406C56.9402 20.9719 55.4852 20.3853 53.8934 20.3853C52.1072 20.3853 50.4927 21.123 49.332 22.3116L49.7259 25.8624Z" fill="#E5E5E6"/>
<path fill-rule="evenodd" clip-rule="evenodd" d="M53.1594 23.0716H52.1099V21.991H53.1594V20.9346H54.2325V21.991H55.2819V23.0716H54.2325V24.1279H53.1594V23.0716Z" fill="#6B6B6B"/>
<path d="M17.5574 37.4331C13.1385 37.4331 9.55469 41.3025 9.55469 46.2578H25.5608C25.5608 41.3025 21.9766 37.4331 17.5574 37.4331Z" fill="#D5D5D6"/>
<path d="M19.8382 37.7925C19.5927 38.7555 18.7272 39.4685 17.694 39.4685C16.6331 39.4685 15.7472 38.7172 15.5296 37.7148C12.0924 38.688 9.55469 42.0884 9.55469 46.2579H25.5608C25.5608 42.1915 23.1461 38.8579 19.8382 37.7925Z" fill="#9A9B9B"/>
<path d="M19.8571 37.7744L17.6958 46.5165H25.5609V44.6929C25.5609 41.2772 23.111 38.4279 19.8571 37.7744Z" fill="#C5C6C6"/>
<path d="M9.57325 44.6927V46.5162H17.6959L15.203 37.7905C11.986 38.4718 9.57325 41.3027 9.57325 44.6927Z" fill="#C5C6C6"/>
<path d="M19.1078 37.9649L17.5194 38.4547L16.0078 37.9649V34.8472H19.1078V37.9649Z" fill="#D5D5D6"/>
<path d="M17.6924 46.5166L21.0908 41.163L20.0625 40.669L21.6987 40.1983L22.3907 38.8234C22.3907 38.8234 21.2769 37.9593 19.8536 37.7964C19.4704 39.3234 17.6924 46.5166 17.6924 46.5166Z" fill="#E9E9EA"/>
<path d="M17.6927 46.5164L14.2944 41.1629L15.3228 40.6688L13.6867 40.1981L12.9546 38.6603C12.9546 38.6603 14.0589 37.9741 15.4915 37.6333C15.8745 39.1603 17.6927 46.5164 17.6927 46.5164Z" fill="#E9E9EA"/>
<path d="M24.2362 28.3253C24.2362 24.4002 21.2464 21.2183 17.558 21.2183C13.8696 21.2183 10.8799 24.4002 10.8799 28.3253C10.8799 32.2505 13.8696 35.4325 17.558 35.4325C21.2464 35.4325 24.2362 32.2505 24.2362 28.3253Z" fill="#393939"/>
<path d="M21.5306 32.9419C20.7036 32.8265 20.1452 31.6385 20.2852 30.2894C20.4236 28.9398 21.2069 27.9375 22.0346 28.0524C22.8611 28.1673 23.4187 29.3549 23.279 30.7048C23.1405 32.0546 22.3576 33.0557 21.5306 32.9419Z" fill="#D5D5D6"/>
<path d="M11.8368 30.7048C11.6973 29.3549 12.2549 28.1673 13.0812 28.0524C13.9091 27.9375 14.6925 28.9398 14.8313 30.2894C14.971 31.6385 14.4121 32.8265 13.5854 32.9419C12.7583 33.0556 11.9757 32.0546 11.8368 30.7048Z" fill="#D5D5D6"/>
<path d="M22.5278 29.5057C22.5278 25.4375 20.3024 23.124 17.5579 23.124C14.8133 23.124 12.5879 25.4375 12.5879 29.5057C12.5879 33.5742 14.8133 36.8727 17.5579 36.8727C20.3024 36.8727 22.5278 33.5742 22.5278 29.5057Z" fill="#E2E2E3"/>
<path d="M20.9189 22.2209C20.9189 20.3519 19.414 18.8364 17.5576 18.8364C15.7012 18.8364 14.1963 20.3519 14.1963 22.2209C14.1963 24.0896 15.7012 25.6052 17.5576 25.6052C19.414 25.6052 20.9189 24.0896 20.9189 22.2209Z" fill="#393939"/>
<path d="M22.9357 28.8968C22.9357 28.8847 22.9357 28.9089 22.9357 28.8968C22.9357 25.7409 20.8137 22.4106 17.8432 22.4106C14.8731 22.4106 11.9795 25.7897 11.9795 28.9455C11.9795 28.9577 11.9802 28.9694 11.9802 28.9814C12.8971 27.9394 13.3118 28.1139 14.5983 28.1139C15.6152 31.0664 20.0337 26.5583 22.9357 28.8968Z" fill="#393939"/>
<path d="M13.5882 25.8624C15.8041 24.5015 19.1956 24.463 21.6589 25.6464L21.9218 21.9406C20.8025 20.9719 19.3476 20.3853 17.7557 20.3853C15.9695 20.3853 14.355 21.123 13.1943 22.3116L13.5882 25.8624Z" fill="#E5E5E6"/>
<path fill-rule="evenodd" clip-rule="evenodd" d="M17.0211 23.0716H15.9717V21.991H17.0211V20.9346H18.0942V21.991H19.1436V23.0716H18.0942V24.1279H17.0211V23.0716Z" fill="#6B6B6B"/>
<path d="M42.4198 31.8456C40.9476 31.6551 39.9535 29.6916 40.2029 27.4626C40.4487 25.2316 41.8437 23.5758 43.3163 23.7658C44.7877 23.9558 45.7807 25.9174 45.5318 28.1483C45.2849 30.3789 43.8922 32.0337 42.4198 31.8456Z" fill="#DFDFDF"/>
<path d="M25.5932 28.1483C25.3449 25.9174 26.3377 23.9558 27.8085 23.7658C29.2819 23.5758 30.6763 25.2316 30.9234 27.4626C31.172 29.6916 30.1771 31.6551 28.7057 31.8456C27.2333 32.0337 25.8409 30.3789 25.5932 28.1483Z" fill="#DFDFDF"/>
<path d="M35.627 38.8115C28.3007 38.8115 22.3594 45.2266 22.3594 53.4412H48.8945C48.8945 45.2266 42.9533 38.8115 35.627 38.8115Z" fill="#E8E8E8"/>
<path d="M48.8946 53.87V50.8471C48.8946 44.3836 43.6045 39.1436 37.0796 39.1436H34.2052C27.6802 39.1436 22.3901 44.3835 22.3901 50.8471V53.87H48.8946Z" fill="#CACBCB"/>
<path d="M31.687 39.4159L35.8563 53.87L39.439 39.377L31.687 39.4159Z" fill="#4D4D4D"/>
<path d="M36.351 43.1884L37.3465 42.1161L35.563 40.5059L34.3597 42.1161L35.3556 43.1884L34.0806 50.5598L35.8529 53.8702L37.6662 50.7608L36.351 43.1884Z" fill="#6C6C6C"/>
<path d="M38.1964 39.6937L35.5629 40.5058L33.0571 39.6937V35.1475H38.1964V39.6937Z" fill="#D8D8D8"/>
<path d="M35.856 53.8706L41.4898 44.9952L39.7854 44.1763L42.4978 43.3962L43.6452 41.1164C43.6452 41.1164 41.7983 39.6844 39.4387 39.4141C38.8039 41.9456 35.856 53.8706 35.856 53.8706Z" fill="#A1A1A1"/>
<path d="M35.8559 53.87L30.2223 44.9946L31.927 44.1757L29.2147 43.3956L28.001 40.8459C28.001 40.8459 29.8319 39.7085 32.2069 39.1436C32.8417 41.6748 35.8559 53.87 35.8559 53.87Z" fill="#A1A1A1"/>
<path d="M32.9798 39.0158L35.5612 40.4461L38.2699 39.0158L40.9287 39.6019L38.694 43.4806L35.5612 40.5592L32.9798 43.3796L30.3306 39.6472C30.3306 39.6472 31.9962 38.9915 32.9798 39.0158Z" fill="#4D4D4D"/>
<path d="M44.0958 24.8447C44.0958 17.8343 40.2619 16.1671 35.5325 16.1671C34.6639 16.1516 33.9672 17.786 33.1985 17.9098C32.04 18.0965 30.8797 16.873 30.0137 17.4786C28.1861 18.7567 26.9688 20.9508 26.9688 24.8447C26.9688 27.7819 27.8614 34.285 29.3841 35.6101C30.4307 36.5461 33.8451 38.1485 35.5149 38.1485C35.5207 38.1485 35.527 38.1477 35.533 38.1477C35.5388 38.1477 35.544 38.1485 35.5495 38.1485C37.2201 38.1485 40.6356 36.5461 41.6811 35.6101C43.2643 33.9257 44.0958 27.5404 44.0958 24.8447Z" fill="#E8E8E8"/>
<path d="M33.1782 24.6323C33.1327 24.7193 33.0912 24.8185 33.0545 24.9308L32.8793 25.4667L32.3184 25.4355C31.8679 25.4104 31.3581 25.4422 30.8552 25.4736C28.9102 25.4796 29.461 26.1869 29.0272 29.2602L28.3728 28.9291L28.4069 28.7847C28.4552 28.5802 28.4169 28.2302 28.4198 27.6819C28.427 26.2791 27.8338 25.3102 27.4582 24.8381C27.256 24.6488 27.0631 24.4112 26.8779 24.1136C26.8753 21.723 27.2678 18.0493 30.4843 16.8468L30.5817 16.8179C31.4906 16.6136 31.9426 16.955 32.3551 17.2666C32.4407 17.3314 32.5216 17.3924 32.5444 17.4052C32.8073 17.4052 33.1718 17.0623 33.4273 16.8222C33.6799 16.5848 33.8791 16.3977 34.1631 16.3353C38.8081 15.3154 45.2675 18.1208 43.8857 24.1428L43.5688 24.5079C43.5034 24.5832 43.4374 24.6521 43.3707 24.7152C43.014 25.1271 42.3007 26.1435 42.3067 27.6819C42.3083 28.0877 42.3093 28.3818 42.3146 28.5923L42.3204 28.815L42.3537 28.9291L41.6993 29.2602C41.5559 25.9203 42.4304 25.6751 39.7624 24.751C39.0423 24.5016 38.2071 24.1912 37.2183 23.8857C36.6735 23.7173 37.3495 23.9248 36.7697 23.7462L36.6407 23.6943C36.6259 23.6865 36.5952 23.6747 36.549 23.6594C36.1764 23.536 35.4835 23.4603 34.7788 23.5923C34.1358 23.7128 33.5015 24.0139 33.1782 24.6323Z" fill="#323232"/>
</svg>
