<svg width="1920" height="1080" viewBox="0 0 1920 1080" fill="none" xmlns="http://www.w3.org/2000/svg">
<g clip-path="url(#clip0_42_390)">
<path d="M1920 0H0V1080H1920V0Z" fill="url(#paint0_linear_42_390)"/>
<path opacity="0.12" d="M13.2899 1293.36L-234.35 884.21L1761.89 -324.01L2009.53 85.15L13.2899 1293.36Z" fill="url(#paint1_linear_42_390)"/>
<path opacity="0.12" d="M44.3198 1485.21L-156.42 1153.53L1860.9 -67.45L2061.65 264.23L44.3198 1485.21Z" fill="url(#paint2_linear_42_390)"/>
<path opacity="0.12" d="M-84.3301 1003.27L-285.08 671.59L1426.35 -364.25L1627.1 -32.57L-84.3301 1003.27Z" fill="url(#paint3_linear_42_390)"/>
<path d="M364.275 352.231L820.884 600.289C849.501 616.809 848.814 670.168 824.025 684.477L607.372 809.556C582.601 823.864 539.304 822.062 510.705 805.542C510.705 805.542 86.523 560.625 57.9059 544.105C29.2889 527.585 24.3645 472.98 49.1535 458.69L267.628 348.217C278.852 341.732 293.885 338.555 309.624 338.555C328.597 338.555 348.629 343.182 364.275 352.231Z" fill="url(#paint4_linear_42_390)"/>
<path d="M816.908 597.371L364.09 335.953C335.473 319.433 292.194 317.631 267.424 331.939L50.7703 457.018C25.9813 471.327 29.1032 496.32 57.7203 512.84L510.538 774.258C539.155 790.778 582.434 792.562 607.204 778.272L823.858 653.193C848.628 638.866 845.525 613.891 816.908 597.371Z" fill="url(#paint5_linear_42_390)"/>
<path d="M808.211 602.389L355.393 340.952C331.069 326.922 294.294 325.398 273.221 337.551L61.0466 460.047C39.9926 472.2 42.6313 493.44 66.9558 507.488L519.774 768.925C544.098 782.973 580.873 784.497 601.946 772.326L814.121 649.83C835.175 637.677 832.517 616.437 808.211 602.389Z" fill="url(#paint6_linear_42_390)"/>
<path d="M209.409 374.419L124.896 423.217L134.596 428.81C137.16 430.296 140.821 431.04 144.742 430.854C148.663 430.687 152.565 429.627 155.557 427.899L217.53 392.109C220.521 390.381 222.361 388.133 222.658 385.866C222.956 383.599 221.673 381.48 219.109 380.012L209.409 374.419Z" fill="url(#paint7_linear_42_390)"/>
<path d="M735.033 674.358L644.425 726.668C642.269 727.913 642.009 729.009 643.681 729.976C645.335 730.942 647.249 730.793 649.405 729.548L740.013 677.239C742.169 675.994 742.41 674.897 740.756 673.931C739.103 672.983 737.189 673.113 735.033 674.358Z" fill="url(#paint8_linear_42_390)"/>
<path d="M313.138 189L529.748 314.06L537.988 545.37L321.378 420.31L313.138 189Z" fill="url(#paint9_linear_42_390)"/>
<path d="M477.038 580.55L260.428 455.49L321.378 420.31L537.988 545.37L477.038 580.55Z" fill="url(#paint10_linear_42_390)"/>
<path d="M537.988 545.37L506.548 563.52L477.048 580.56L485.278 339.73L492.568 318.27L529.748 314.06L537.988 545.37Z" fill="url(#paint11_linear_42_390)"/>
<path d="M268.668 214.67L260.428 455.49L321.378 420.31L313.138 189L305.848 210.46L268.668 214.67Z" fill="url(#paint12_linear_42_390)"/>
<path d="M268.668 214.67L485.278 339.73L477.038 580.55L260.428 455.49L268.668 214.67Z" fill="url(#paint13_linear_42_390)"/>
<path d="M380.624 261.306C383.47 259.663 383.469 254.333 380.622 249.402C377.775 244.471 373.16 241.806 370.314 243.449C367.468 245.092 367.469 250.421 370.316 255.352C373.163 260.283 377.778 262.949 380.624 261.306Z" fill="url(#paint14_linear_42_390)"/>
<path d="M379.579 259.496C381.846 258.187 381.843 253.939 379.574 250.007C377.304 246.076 373.626 243.95 371.359 245.259C369.092 246.568 369.094 250.816 371.364 254.747C373.634 258.679 377.312 260.805 379.579 259.496Z" fill="url(#paint15_linear_42_390)"/>
<path d="M449.332 298.801C452.178 297.158 452.177 291.829 449.33 286.897C446.483 281.966 441.868 279.301 439.022 280.944C436.176 282.587 436.177 287.916 439.024 292.847C441.871 297.779 446.486 300.444 449.332 298.801Z" fill="url(#paint16_linear_42_390)"/>
<path d="M448.287 296.99C450.554 295.682 450.552 291.433 448.282 287.502C446.012 283.571 442.334 281.445 440.067 282.754C437.8 284.062 437.802 288.311 440.072 292.242C442.342 296.173 446.02 298.299 448.287 296.99Z" fill="url(#paint17_linear_42_390)"/>
<path d="M343.005 296.703C345.85 295.06 345.849 289.731 343.002 284.8C340.155 279.869 335.54 277.203 332.695 278.846C329.849 280.489 329.85 285.819 332.697 290.75C335.544 295.681 340.159 298.346 343.005 296.703Z" fill="url(#paint18_linear_42_390)"/>
<path d="M341.96 294.893C344.227 293.584 344.224 289.336 341.955 285.405C339.685 281.473 336.007 279.347 333.74 280.656C331.473 281.965 331.475 286.213 333.745 290.145C336.015 294.076 339.693 296.202 341.96 294.893Z" fill="url(#paint19_linear_42_390)"/>
<path d="M419.434 342.181C422.28 340.538 422.279 335.208 419.432 330.277C416.585 325.346 411.97 322.681 409.124 324.324C406.279 325.967 406.28 331.296 409.127 336.227C411.974 341.158 416.589 343.824 419.434 342.181Z" fill="url(#paint20_linear_42_390)"/>
<path d="M418.389 340.371C420.656 339.062 420.654 334.814 418.384 330.882C416.114 326.951 412.436 324.825 410.169 326.133C407.902 327.442 407.905 331.691 410.175 335.622C412.444 339.554 416.122 341.68 418.389 340.371Z" fill="url(#paint21_linear_42_390)"/>
<path d="M392.838 416.24C387.018 416.24 380.628 414.33 374.058 410.53C351.868 397.72 333.808 366.44 333.808 340.82V289.93C333.808 288.33 335.098 287.04 336.698 287.04C338.298 287.04 339.588 288.33 339.588 289.93V340.82C339.588 364.61 356.348 393.64 376.948 405.53C386.378 410.98 395.098 411.94 401.498 408.25C407.898 404.56 411.418 396.52 411.418 385.63V334.74C411.418 333.14 412.708 331.85 414.308 331.85C415.908 331.85 417.198 333.14 417.198 334.74V385.63C417.198 398.67 412.648 408.48 404.388 413.25C400.928 415.25 397.028 416.24 392.838 416.24Z" fill="url(#paint22_linear_42_390)"/>
<path opacity="0.26" d="M506.548 563.52L477.048 580.56L485.278 339.73L492.568 318.27L506.548 563.52Z" fill="url(#paint23_linear_42_390)"/>
<path d="M160.752 508.764C160.732 508.314 160.712 507.864 160.712 507.424C160.722 507.834 160.732 508.294 160.752 508.764Z" fill="url(#paint24_linear_42_390)"/>
<path d="M309.492 375.444C309.492 374.364 309.412 373.274 309.272 372.184C308.802 358.094 305.732 345.064 292.812 333.134C293.062 331.864 293.192 330.584 293.192 329.294C293.192 329.334 177.662 328.994 177.662 328.974C177.662 330.244 177.782 331.524 178.042 332.814C166.182 343.174 160.792 359.044 161.122 374.474C161.122 374.624 161.102 374.774 161.102 374.934L160.722 507.424C160.722 506.584 160.782 505.744 160.872 504.914C160.832 506.214 160.812 507.514 160.762 508.804C165.372 572.524 271.132 580.034 301.772 532.534C308.002 523.424 308.952 514.444 308.922 504.884C309.042 505.904 309.122 506.934 309.122 507.944C309.222 468.194 309.372 415.194 309.492 375.444Z" fill="url(#paint25_linear_42_390)"/>
<path d="M249.952 447.184L249.742 519.964C284.722 515.934 309.142 498.144 309.192 478.084L309.402 405.304C309.352 425.374 284.932 443.154 249.952 447.184Z" fill="url(#paint26_linear_42_390)"/>
<path opacity="0.6" d="M173.062 359.834C173.092 359.794 173.122 359.754 173.142 359.714C174.892 357.204 178.482 356.834 180.662 358.984C185.222 363.464 191.612 367.184 199.122 369.854C208.622 373.234 219.932 374.934 231.652 374.404C234.412 374.284 236.742 376.404 236.852 379.164C236.892 380.084 236.952 381.074 237.032 382.134C237.252 384.914 235.132 387.344 232.342 387.484C206.022 388.794 181.582 379.514 172.862 365.264C171.852 363.574 171.922 361.434 173.062 359.834Z" fill="url(#paint27_linear_42_390)"/>
<path d="M245.742 333.384C214.302 336.604 184.232 324.444 178.582 306.224C177.962 304.214 177.662 302.214 177.662 300.244C177.662 309.834 177.662 319.424 177.662 329.024C177.662 330.994 177.962 332.984 178.582 334.994C184.232 353.184 214.262 365.334 245.652 362.124C273.522 359.274 293.102 345.274 293.192 329.434C293.242 319.844 293.302 310.254 293.352 300.664C293.262 316.514 273.652 330.524 245.742 333.384Z" fill="url(#paint28_linear_42_390)"/>
<path d="M245.742 333.384C214.302 336.604 184.232 324.444 178.582 306.224C172.922 288.004 193.822 270.624 225.262 267.414C256.702 264.194 286.772 276.354 292.422 294.574C298.082 312.794 277.182 330.164 245.742 333.384Z" fill="url(#paint29_linear_42_390)"/>
<path d="M499.064 727.108L386.304 662.168C377.324 656.988 376.884 645.948 387.254 639.958L599.474 520.768C609.834 514.788 625.514 514.138 634.494 519.318L747.254 581.258C756.234 586.438 755.104 598.488 744.744 604.478L534.084 725.658C523.724 731.638 508.044 732.288 499.064 727.108Z" fill="url(#paint30_linear_42_390)"/>
<path d="M499.065 724.108L386.305 659.168C377.325 653.988 378.455 644.938 388.815 638.948L599.465 517.768C609.825 511.788 625.505 511.138 634.485 516.318L747.245 581.258C756.225 586.438 755.095 595.488 744.735 601.478L534.085 722.658C523.725 728.638 508.045 729.288 499.065 724.108Z" fill="white"/>
<path d="M614.115 562.938C620.885 566.438 627.955 573.108 635.315 570.568C636.785 570.058 638.265 569.188 639.765 567.848C645.685 562.528 644.415 552.318 637.555 548.558L626.275 541.998C626.135 541.928 625.995 541.858 625.855 541.788C619.795 538.648 611.925 531.438 604.735 534.538C600.435 536.098 597.295 540.118 596.855 544.718C596.825 545.058 596.805 545.408 596.805 545.758C596.595 555.698 607.285 558.348 614.115 562.938Z" fill="url(#paint31_radial_42_390)"/>
<path d="M615.405 560.349C614.305 559.529 613.655 558.389 613.365 557.079C613.355 557.039 613.345 556.999 613.335 556.949C613.305 556.809 613.285 556.669 613.265 556.519C613.035 554.839 613.335 552.919 614.015 551.029C614.045 550.949 614.075 550.869 614.105 550.789C615.405 547.329 617.965 543.999 620.815 542.479C621.095 542.329 621.375 542.199 621.655 542.089C621.685 542.079 621.715 542.059 621.745 542.049C622.085 541.919 622.425 541.819 622.765 541.739C623.865 541.499 624.975 541.569 626.035 542.039C625.915 541.979 625.795 541.919 625.675 541.859C620.375 539.119 613.495 532.809 607.215 535.529C603.455 536.889 600.715 540.409 600.335 544.429C600.305 544.729 600.285 545.029 600.285 545.329C600.085 554.029 609.435 556.349 615.405 560.349Z" fill="white"/>
<path d="M613.256 556.519C613.276 556.659 613.306 556.809 613.336 556.949C613.346 556.989 613.356 557.039 613.366 557.079C613.666 558.339 614.316 559.469 615.406 560.349C621.326 563.409 627.506 569.239 633.936 567.019C635.226 566.579 636.516 565.819 637.826 564.639C642.996 559.989 641.886 551.069 635.896 547.779L626.036 542.049C625.916 541.979 625.796 541.919 625.676 541.869C624.836 541.499 623.836 541.439 622.726 541.729C622.406 541.809 622.086 541.919 621.746 542.059C621.716 542.069 621.686 542.079 621.656 542.099C621.386 542.219 621.116 542.349 620.836 542.509H620.826C618.236 543.899 615.506 547.239 614.106 550.799C614.076 550.879 614.046 550.959 614.016 551.039C613.316 552.899 612.996 554.809 613.256 556.519Z" fill="url(#paint32_linear_42_390)"/>
<path opacity="0.44" d="M637.225 552.189C636.895 551.929 636.455 551.629 636.065 551.379C635.975 551.319 635.885 551.259 635.785 551.199C632.725 549.419 628.655 547.059 625.595 545.279C622.535 543.499 618.465 541.139 615.405 539.359C615.055 539.169 614.585 538.919 614.225 538.769C613.855 538.609 613.355 538.419 612.965 538.319C612.475 538.189 611.815 538.049 611.315 537.969C611.165 537.949 610.985 537.929 610.815 537.919C611.175 537.829 611.635 537.719 611.995 537.669C612.365 537.619 612.865 537.579 613.235 537.579C613.565 537.579 614.005 537.599 614.335 537.649C614.735 537.709 615.265 537.819 615.655 537.929C615.965 538.009 616.365 538.169 616.665 538.289C616.955 538.409 617.325 538.609 617.605 538.759C620.035 540.179 623.285 542.059 625.725 543.479C628.155 544.889 631.405 546.779 633.845 548.199C633.925 548.239 633.995 548.289 634.065 548.339C634.375 548.539 634.725 548.779 634.985 548.989C635.235 549.189 635.545 549.489 635.765 549.709C636.005 549.949 636.575 550.609 637.005 551.359C637.235 551.759 637.405 552.119 637.545 552.459C637.415 552.349 637.315 552.259 637.225 552.189Z" fill="white"/>
<path d="M615.405 560.349C621.325 563.409 627.505 569.238 633.935 567.018C628.165 566.498 622.585 561.689 617.195 558.909C616.025 558.089 614.685 557.319 613.265 556.529C613.265 556.529 613.255 556.528 613.255 556.518C608.225 553.698 602.315 550.599 600.325 544.439C600.295 544.739 600.275 545.039 600.275 545.339C600.085 554.029 609.435 556.349 615.405 560.349Z" fill="url(#paint33_linear_42_390)"/>
<path opacity="0.13" d="M614.875 561.428C621.645 564.928 628.715 571.598 636.075 569.058C637.545 568.548 639.025 567.678 640.525 566.338C646.445 561.018 645.175 550.808 638.315 547.048L627.035 540.488C626.895 540.418 626.755 540.348 626.615 540.278C620.555 537.138 612.685 529.928 605.495 533.028C601.195 534.588 598.055 538.608 597.615 543.208C597.585 543.548 597.565 543.898 597.565 544.248C597.345 554.198 608.045 556.848 614.875 561.428Z" fill="url(#paint34_radial_42_390)"/>
<path d="M669.715 595.018C676.485 598.518 683.555 605.188 690.915 602.648C692.385 602.138 693.865 601.268 695.365 599.928C701.285 594.608 700.015 584.398 693.155 580.638L681.875 574.078C681.735 574.008 681.595 573.938 681.455 573.868C675.395 570.728 667.525 563.518 660.335 566.618C656.035 568.178 652.895 572.198 652.455 576.798C652.425 577.138 652.405 577.488 652.405 577.838C652.185 587.788 662.885 590.438 669.715 595.018Z" fill="url(#paint35_radial_42_390)"/>
<path d="M670.995 592.429C669.895 591.609 669.245 590.469 668.955 589.159C668.945 589.119 668.935 589.079 668.925 589.029C668.895 588.889 668.875 588.749 668.855 588.599C668.625 586.919 668.925 584.999 669.605 583.109C669.635 583.029 669.665 582.949 669.695 582.869C670.995 579.409 673.555 576.079 676.405 574.559C676.685 574.409 676.965 574.279 677.245 574.169C677.275 574.159 677.305 574.139 677.335 574.129C677.675 573.999 678.015 573.899 678.355 573.819C679.455 573.579 680.565 573.649 681.625 574.119C681.505 574.059 681.385 573.999 681.265 573.939C675.965 571.199 669.085 564.889 662.805 567.609C659.045 568.969 656.305 572.489 655.925 576.509C655.895 576.809 655.875 577.109 655.875 577.409C655.675 586.109 665.025 588.429 670.995 592.429Z" fill="white"/>
<path d="M668.855 588.599C668.875 588.739 668.905 588.889 668.935 589.029C668.945 589.069 668.955 589.119 668.965 589.159C669.265 590.419 669.915 591.549 671.005 592.429C676.925 595.489 683.105 601.319 689.535 599.099C690.825 598.659 692.115 597.899 693.425 596.719C698.595 592.069 697.485 583.149 691.495 579.859L681.635 574.129C681.515 574.059 681.395 573.999 681.275 573.949C680.435 573.579 679.435 573.519 678.325 573.809C678.005 573.889 677.685 573.999 677.345 574.139C677.315 574.149 677.285 574.159 677.255 574.179C676.985 574.299 676.715 574.429 676.435 574.589H676.425C673.835 575.979 671.105 579.319 669.705 582.879C669.675 582.959 669.645 583.039 669.615 583.119C668.915 584.989 668.595 586.899 668.855 588.599Z" fill="url(#paint36_linear_42_390)"/>
<path opacity="0.44" d="M692.815 584.269C692.485 584.009 692.045 583.709 691.655 583.459C691.565 583.399 691.475 583.339 691.375 583.279C688.315 581.499 684.245 579.139 681.185 577.359C678.125 575.579 674.055 573.219 670.995 571.439C670.645 571.249 670.175 570.999 669.815 570.849C669.445 570.689 668.945 570.499 668.555 570.399C668.065 570.269 667.405 570.129 666.905 570.049C666.755 570.029 666.575 570.009 666.405 569.999C666.765 569.909 667.225 569.799 667.585 569.749C667.955 569.699 668.455 569.659 668.825 569.659C669.155 569.659 669.595 569.679 669.925 569.729C670.325 569.789 670.855 569.899 671.245 570.009C671.555 570.089 671.955 570.249 672.255 570.369C672.545 570.489 672.915 570.689 673.195 570.839C675.625 572.259 678.875 574.139 681.315 575.559C683.745 576.969 686.995 578.859 689.435 580.279C689.515 580.319 689.585 580.369 689.655 580.419C689.965 580.619 690.315 580.859 690.575 581.069C690.825 581.269 691.135 581.569 691.355 581.789C691.595 582.029 692.165 582.689 692.595 583.439C692.825 583.839 692.995 584.199 693.135 584.539C693.015 584.429 692.915 584.349 692.815 584.269Z" fill="white"/>
<path d="M670.995 592.429C676.915 595.489 683.095 601.319 689.525 599.099C683.755 598.579 678.175 593.769 672.785 590.989C671.615 590.169 670.275 589.399 668.855 588.609C668.855 588.609 668.845 588.609 668.845 588.599C663.815 585.779 657.905 582.679 655.915 576.519C655.885 576.819 655.865 577.119 655.865 577.419C655.675 586.109 665.025 588.429 670.995 592.429Z" fill="url(#paint37_linear_42_390)"/>
<path opacity="0.13" d="M670.464 593.508C677.234 597.008 684.304 603.678 691.664 601.138C693.134 600.628 694.614 599.758 696.114 598.418C702.034 593.098 700.764 582.888 693.904 579.128L682.624 572.568C682.484 572.498 682.344 572.428 682.204 572.358C676.144 569.218 668.274 562.008 661.084 565.108C656.784 566.668 653.644 570.688 653.204 575.288C653.174 575.628 653.154 575.978 653.154 576.328C652.944 586.278 663.634 588.928 670.464 593.508Z" fill="url(#paint38_radial_42_390)"/>
<path d="M571.135 587.619C577.905 591.119 584.975 597.789 592.335 595.249C593.805 594.739 595.285 593.869 596.785 592.529C602.705 587.209 601.435 576.999 594.575 573.239L583.295 566.679C583.155 566.609 583.015 566.539 582.875 566.469C576.815 563.329 568.945 556.119 561.755 559.219C557.455 560.779 554.315 564.799 553.875 569.399C553.845 569.739 553.825 570.089 553.825 570.439C553.605 580.389 564.305 583.039 571.135 587.619Z" fill="url(#paint39_radial_42_390)"/>
<path d="M572.415 585.028C571.315 584.208 570.665 583.068 570.375 581.758C570.365 581.718 570.355 581.678 570.345 581.628C570.315 581.488 570.295 581.348 570.275 581.198C570.045 579.518 570.345 577.598 571.025 575.708C571.055 575.628 571.085 575.548 571.115 575.468C572.415 572.008 574.975 568.678 577.825 567.158C578.105 567.008 578.385 566.878 578.665 566.768C578.695 566.758 578.725 566.738 578.755 566.728C579.095 566.598 579.435 566.498 579.775 566.418C580.875 566.178 581.985 566.248 583.045 566.718C582.925 566.658 582.805 566.598 582.685 566.538C577.385 563.798 570.505 557.488 564.225 560.208C560.465 561.568 557.725 565.088 557.345 569.108C557.315 569.408 557.295 569.708 557.295 570.008C557.095 578.708 566.445 581.028 572.415 585.028Z" fill="white"/>
<path d="M570.275 581.198C570.295 581.338 570.325 581.488 570.355 581.628C570.365 581.668 570.375 581.718 570.385 581.758C570.685 583.018 571.335 584.148 572.425 585.028C578.345 588.088 584.525 593.918 590.955 591.698C592.245 591.258 593.535 590.498 594.845 589.318C600.015 584.668 598.905 575.748 592.915 572.458L583.055 566.728C582.935 566.658 582.815 566.598 582.695 566.548C581.855 566.178 580.855 566.118 579.745 566.408C579.425 566.488 579.105 566.598 578.765 566.738C578.735 566.748 578.705 566.758 578.675 566.778C578.405 566.898 578.135 567.028 577.855 567.188H577.845C575.255 568.578 572.525 571.918 571.125 575.478C571.095 575.558 571.065 575.638 571.035 575.718C570.335 577.588 570.015 579.498 570.275 581.198Z" fill="url(#paint40_linear_42_390)"/>
<path opacity="0.44" d="M594.235 576.868C593.905 576.608 593.465 576.308 593.075 576.058C592.985 575.998 592.895 575.938 592.795 575.878C589.735 574.098 585.665 571.738 582.605 569.958C579.545 568.178 575.475 565.818 572.415 564.038C572.065 563.848 571.595 563.598 571.235 563.448C570.865 563.288 570.365 563.098 569.975 562.998C569.485 562.868 568.825 562.728 568.325 562.648C568.175 562.628 567.995 562.608 567.825 562.598C568.185 562.508 568.645 562.398 569.005 562.348C569.375 562.298 569.875 562.258 570.245 562.258C570.575 562.258 571.015 562.278 571.345 562.328C571.745 562.388 572.275 562.498 572.665 562.608C572.975 562.688 573.375 562.848 573.675 562.968C573.965 563.088 574.335 563.288 574.615 563.438C577.045 564.858 580.295 566.738 582.735 568.158C585.165 569.568 588.415 571.458 590.855 572.878C590.935 572.918 591.005 572.968 591.075 573.018C591.385 573.218 591.735 573.458 591.995 573.668C592.245 573.868 592.555 574.168 592.775 574.388C593.015 574.628 593.585 575.288 594.015 576.038C594.245 576.438 594.415 576.798 594.555 577.138C594.435 577.028 594.335 576.948 594.235 576.868Z" fill="white"/>
<path d="M572.415 585.028C578.335 588.088 584.515 593.918 590.945 591.698C585.175 591.178 579.595 586.368 574.205 583.588C573.035 582.768 571.695 581.998 570.275 581.208C570.275 581.208 570.265 581.208 570.265 581.198C565.235 578.378 559.325 575.278 557.335 569.118C557.305 569.418 557.285 569.718 557.285 570.018C557.095 578.708 566.445 581.028 572.415 585.028Z" fill="url(#paint41_linear_42_390)"/>
<path opacity="0.13" d="M571.884 586.108C578.654 589.608 585.724 596.278 593.084 593.738C594.554 593.228 596.034 592.358 597.534 591.018C603.454 585.698 602.184 575.488 595.324 571.728L584.044 565.168C583.904 565.098 583.764 565.028 583.624 564.958C577.564 561.818 569.694 554.608 562.504 557.708C558.204 559.268 555.064 563.288 554.624 567.888C554.594 568.228 554.574 568.578 554.574 568.928C554.364 578.878 565.054 581.528 571.884 586.108Z" fill="url(#paint42_radial_42_390)"/>
<path d="M626.724 619.698C633.494 623.198 640.564 629.868 647.924 627.328C649.394 626.818 650.874 625.948 652.374 624.608C658.294 619.288 657.024 609.078 650.164 605.318L638.884 598.758C638.744 598.688 638.604 598.618 638.464 598.548C632.404 595.408 624.534 588.198 617.344 591.298C613.044 592.858 609.904 596.878 609.464 601.478C609.434 601.818 609.414 602.168 609.414 602.518C609.204 612.468 619.894 615.118 626.724 619.698Z" fill="url(#paint43_radial_42_390)"/>
<path d="M628.015 617.118C626.915 616.298 626.265 615.158 625.975 613.848C625.965 613.808 625.955 613.768 625.945 613.718C625.915 613.578 625.895 613.438 625.875 613.288C625.645 611.608 625.945 609.688 626.625 607.798C626.655 607.718 626.685 607.638 626.715 607.558C628.015 604.098 630.575 600.768 633.425 599.248C633.705 599.098 633.985 598.968 634.265 598.858C634.295 598.848 634.325 598.828 634.355 598.818C634.695 598.688 635.035 598.588 635.375 598.508C636.475 598.268 637.585 598.338 638.645 598.808C638.525 598.748 638.405 598.688 638.285 598.628C632.985 595.888 626.105 589.578 619.825 592.298C616.065 593.658 613.325 597.178 612.945 601.198C612.915 601.498 612.895 601.798 612.895 602.098C612.695 610.798 622.045 613.108 628.015 617.118Z" fill="white"/>
<path d="M625.865 613.288C625.885 613.428 625.915 613.578 625.945 613.718C625.955 613.758 625.965 613.808 625.975 613.848C626.275 615.108 626.925 616.238 628.015 617.118C633.935 620.178 640.115 626.008 646.545 623.788C647.835 623.348 649.125 622.588 650.435 621.408C655.605 616.758 654.495 607.838 648.505 604.548L638.645 598.818C638.525 598.748 638.405 598.688 638.285 598.638C637.445 598.268 636.445 598.208 635.335 598.498C635.015 598.578 634.695 598.688 634.355 598.828C634.325 598.838 634.295 598.848 634.265 598.868C633.995 598.988 633.725 599.118 633.445 599.278H633.435C630.845 600.668 628.115 604.008 626.715 607.568C626.685 607.648 626.655 607.728 626.625 607.808C625.925 609.668 625.605 611.578 625.865 613.288Z" fill="url(#paint44_linear_42_390)"/>
<path opacity="0.44" d="M649.835 608.958C649.505 608.698 649.065 608.398 648.675 608.148C648.585 608.088 648.495 608.028 648.395 607.968C645.335 606.188 641.265 603.828 638.205 602.048C635.145 600.268 631.075 597.908 628.015 596.128C627.665 595.938 627.195 595.688 626.835 595.538C626.465 595.378 625.965 595.188 625.575 595.088C625.085 594.958 624.425 594.818 623.925 594.738C623.775 594.718 623.595 594.698 623.425 594.688C623.785 594.598 624.245 594.488 624.605 594.438C624.975 594.388 625.475 594.348 625.845 594.348C626.175 594.348 626.615 594.368 626.945 594.418C627.345 594.478 627.875 594.588 628.265 594.698C628.575 594.778 628.975 594.938 629.275 595.058C629.565 595.178 629.935 595.378 630.215 595.528C632.645 596.948 635.895 598.828 638.335 600.248C640.765 601.658 644.015 603.548 646.455 604.968C646.535 605.008 646.605 605.058 646.675 605.108C646.985 605.308 647.335 605.548 647.595 605.758C647.845 605.958 648.155 606.258 648.375 606.478C648.615 606.718 649.185 607.378 649.615 608.128C649.845 608.528 650.015 608.888 650.155 609.228C650.025 609.118 649.925 609.028 649.835 608.958Z" fill="white"/>
<path d="M628.015 617.118C633.935 620.178 640.115 626.008 646.545 623.788C640.775 623.268 635.195 618.458 629.805 615.678C628.635 614.858 627.295 614.088 625.875 613.298C625.875 613.298 625.865 613.298 625.865 613.288C620.835 610.468 614.925 607.368 612.935 601.208C612.905 601.508 612.885 601.808 612.885 602.108C612.695 610.798 622.045 613.108 628.015 617.118Z" fill="url(#paint45_linear_42_390)"/>
<path opacity="0.13" d="M627.484 618.198C634.254 621.698 641.324 628.368 648.684 625.828C650.154 625.318 651.634 624.448 653.134 623.108C659.054 617.788 657.784 607.578 650.924 603.818L639.644 597.258C639.504 597.188 639.364 597.118 639.224 597.048C633.164 593.908 625.294 586.698 618.104 589.798C613.804 591.358 610.664 595.378 610.224 599.978C610.194 600.318 610.174 600.668 610.174 601.018C609.954 610.958 620.644 613.608 627.484 618.198Z" fill="url(#paint46_radial_42_390)"/>
<path d="M528.585 612.928C535.355 616.428 542.425 623.098 549.785 620.558C551.255 620.048 552.735 619.178 554.235 617.838C560.155 612.518 558.885 602.308 552.025 598.548L540.745 591.988C540.605 591.918 540.465 591.848 540.325 591.778C534.265 588.638 526.395 581.428 519.205 584.528C514.905 586.088 511.765 590.108 511.325 594.708C511.295 595.048 511.275 595.398 511.275 595.748C511.055 605.698 521.755 608.348 528.585 612.928Z" fill="url(#paint47_radial_42_390)"/>
<path d="M529.875 610.349C528.775 609.529 528.125 608.389 527.835 607.079C527.825 607.039 527.815 606.999 527.805 606.949C527.775 606.809 527.755 606.669 527.735 606.519C527.505 604.839 527.805 602.919 528.485 601.029C528.515 600.949 528.545 600.869 528.575 600.789C529.875 597.329 532.435 593.999 535.285 592.479C535.565 592.329 535.845 592.199 536.125 592.089C536.155 592.079 536.185 592.059 536.215 592.049C536.555 591.919 536.895 591.819 537.235 591.739C538.335 591.499 539.445 591.569 540.505 592.039C540.385 591.979 540.265 591.919 540.145 591.859C534.845 589.119 527.965 582.809 521.685 585.529C517.925 586.889 515.185 590.409 514.805 594.429C514.775 594.729 514.755 595.029 514.755 595.329C514.555 604.029 523.895 606.339 529.875 610.349Z" fill="white"/>
<path d="M527.726 606.519C527.746 606.659 527.776 606.809 527.806 606.949C527.816 606.989 527.826 607.039 527.836 607.079C528.136 608.339 528.786 609.469 529.876 610.349C535.796 613.409 541.976 619.239 548.406 617.019C549.696 616.579 550.986 615.819 552.296 614.639C557.466 609.989 556.356 601.069 550.366 597.779L540.506 592.049C540.386 591.979 540.266 591.919 540.146 591.869C539.306 591.499 538.306 591.439 537.196 591.729C536.876 591.809 536.556 591.919 536.216 592.059C536.186 592.069 536.156 592.079 536.126 592.099C535.856 592.219 535.586 592.349 535.306 592.509H535.296C532.706 593.899 529.976 597.239 528.576 600.799C528.546 600.879 528.516 600.959 528.486 601.039C527.786 602.899 527.466 604.809 527.726 606.519Z" fill="url(#paint48_linear_42_390)"/>
<path opacity="0.44" d="M551.685 602.189C551.355 601.929 550.915 601.629 550.525 601.379C550.435 601.319 550.345 601.259 550.245 601.199C547.185 599.419 543.115 597.059 540.055 595.279C536.995 593.499 532.925 591.139 529.865 589.359C529.515 589.169 529.045 588.919 528.685 588.769C528.315 588.609 527.815 588.419 527.425 588.319C526.935 588.189 526.275 588.049 525.775 587.969C525.625 587.949 525.445 587.929 525.275 587.919C525.635 587.829 526.095 587.719 526.455 587.669C526.825 587.619 527.325 587.579 527.695 587.579C528.025 587.579 528.465 587.599 528.795 587.649C529.195 587.709 529.725 587.819 530.115 587.929C530.425 588.009 530.825 588.169 531.125 588.289C531.415 588.409 531.785 588.609 532.065 588.759C534.495 590.179 537.745 592.059 540.185 593.479C542.615 594.889 545.865 596.779 548.305 598.199C548.385 598.239 548.455 598.289 548.525 598.339C548.835 598.539 549.185 598.779 549.445 598.989C549.695 599.189 550.005 599.489 550.225 599.709C550.465 599.949 551.035 600.609 551.465 601.359C551.695 601.759 551.865 602.119 552.005 602.459C551.885 602.349 551.785 602.259 551.685 602.189Z" fill="white"/>
<path d="M529.875 610.349C535.795 613.409 541.975 619.238 548.405 617.018C542.635 616.498 537.055 611.689 531.665 608.909C530.495 608.089 529.155 607.319 527.735 606.529C527.735 606.529 527.725 606.528 527.725 606.518C522.695 603.698 516.785 600.599 514.795 594.439C514.765 594.739 514.745 595.039 514.745 595.339C514.555 604.029 523.895 606.339 529.875 610.349Z" fill="url(#paint49_linear_42_390)"/>
<path opacity="0.13" d="M529.345 611.428C536.115 614.928 543.185 621.598 550.545 619.058C552.015 618.548 553.495 617.678 554.995 616.338C560.915 611.018 559.645 600.808 552.785 597.048L541.505 590.488C541.365 590.418 541.225 590.348 541.085 590.278C535.025 587.138 527.155 579.928 519.965 583.028C515.665 584.588 512.525 588.608 512.085 593.208C512.055 593.548 512.035 593.898 512.035 594.248C511.815 604.188 522.505 606.838 529.345 611.428Z" fill="url(#paint50_radial_42_390)"/>
<path d="M584.184 645.018C590.954 648.518 598.024 655.188 605.384 652.648C606.854 652.138 608.334 651.268 609.834 649.928C615.754 644.608 614.484 634.398 607.624 630.638L596.344 624.078C596.204 624.008 596.064 623.938 595.924 623.868C589.864 620.728 581.994 613.518 574.804 616.618C570.504 618.178 567.364 622.198 566.924 626.798C566.894 627.138 566.874 627.488 566.874 627.838C566.654 637.778 577.344 640.428 584.184 645.018Z" fill="url(#paint51_radial_42_390)"/>
<path d="M585.465 642.429C584.365 641.609 583.715 640.469 583.425 639.159C583.415 639.119 583.405 639.079 583.395 639.029C583.365 638.889 583.345 638.749 583.325 638.599C583.095 636.919 583.395 634.999 584.075 633.109C584.105 633.029 584.135 632.949 584.165 632.869C585.465 629.409 588.025 626.079 590.875 624.559C591.155 624.409 591.435 624.279 591.715 624.169C591.745 624.159 591.775 624.139 591.805 624.129C592.145 623.999 592.485 623.899 592.825 623.819C593.925 623.579 595.035 623.649 596.095 624.119C595.975 624.059 595.855 623.999 595.735 623.939C590.435 621.199 583.555 614.889 577.275 617.609C573.515 618.969 570.775 622.489 570.395 626.509C570.365 626.809 570.345 627.109 570.345 627.409C570.145 636.109 579.495 638.429 585.465 642.429Z" fill="white"/>
<path d="M583.325 638.599C583.345 638.739 583.375 638.889 583.405 639.029C583.415 639.069 583.425 639.119 583.435 639.159C583.735 640.419 584.385 641.549 585.475 642.429C591.395 645.489 597.575 651.319 604.005 649.099C605.295 648.659 606.585 647.899 607.895 646.719C613.065 642.069 611.955 633.149 605.965 629.859L596.105 624.129C595.985 624.059 595.865 623.999 595.745 623.949C594.905 623.579 593.905 623.519 592.795 623.809C592.475 623.889 592.155 623.999 591.815 624.139C591.785 624.149 591.755 624.159 591.725 624.179C591.455 624.299 591.185 624.429 590.905 624.589H590.895C588.305 625.979 585.575 629.319 584.175 632.879C584.145 632.959 584.115 633.039 584.085 633.119C583.385 634.979 583.055 636.889 583.325 638.599Z" fill="url(#paint52_linear_42_390)"/>
<path opacity="0.44" d="M607.285 634.269C606.955 634.009 606.515 633.709 606.125 633.459C606.035 633.399 605.945 633.339 605.845 633.279C602.785 631.499 598.715 629.139 595.655 627.359C592.595 625.579 588.525 623.219 585.465 621.439C585.115 621.249 584.645 620.999 584.285 620.849C583.915 620.689 583.415 620.499 583.025 620.399C582.535 620.269 581.875 620.129 581.375 620.049C581.225 620.029 581.045 620.009 580.875 619.999C581.235 619.909 581.695 619.799 582.055 619.749C582.425 619.699 582.925 619.659 583.295 619.659C583.625 619.659 584.065 619.679 584.395 619.729C584.795 619.789 585.325 619.899 585.715 620.009C586.025 620.089 586.425 620.249 586.725 620.369C587.015 620.489 587.385 620.689 587.665 620.839C590.095 622.259 593.345 624.139 595.785 625.559C598.215 626.969 601.465 628.859 603.905 630.279C603.985 630.319 604.055 630.369 604.125 630.419C604.435 630.619 604.785 630.859 605.045 631.069C605.295 631.269 605.605 631.569 605.825 631.789C606.065 632.029 606.635 632.689 607.065 633.439C607.295 633.839 607.465 634.199 607.605 634.539C607.475 634.429 607.375 634.339 607.285 634.269Z" fill="white"/>
<path d="M585.465 642.429C591.385 645.489 597.565 651.319 603.995 649.099C598.225 648.579 592.645 643.769 587.255 640.989C586.085 640.169 584.745 639.399 583.325 638.609C583.325 638.609 583.315 638.609 583.315 638.599C578.285 635.779 572.375 632.678 570.385 626.518C570.355 626.818 570.335 627.119 570.335 627.419C570.145 636.109 579.495 638.429 585.465 642.429Z" fill="url(#paint53_linear_42_390)"/>
<path opacity="0.13" d="M584.934 643.508C591.704 647.008 598.774 653.678 606.134 651.138C607.604 650.628 609.084 649.758 610.584 648.418C616.504 643.098 615.234 632.888 608.374 629.128L597.094 622.568C596.954 622.498 596.814 622.428 596.674 622.358C590.614 619.218 582.744 612.008 575.554 615.108C571.254 616.668 568.114 620.688 567.674 625.288C567.644 625.628 567.624 625.978 567.624 626.328C567.404 636.278 578.104 638.928 584.934 643.508Z" fill="url(#paint54_radial_42_390)"/>
<path d="M485.604 637.218C492.374 640.718 499.444 647.388 506.804 644.848C508.274 644.338 509.754 643.468 511.254 642.128C517.174 636.808 515.904 626.598 509.044 622.838L497.764 616.278C497.624 616.208 497.484 616.138 497.344 616.068C491.284 612.928 483.414 605.718 476.224 608.818C471.924 610.378 468.784 614.398 468.344 618.998C468.314 619.338 468.294 619.688 468.294 620.038C468.074 629.978 478.764 632.628 485.604 637.218Z" fill="url(#paint55_radial_42_390)"/>
<path d="M486.885 634.629C485.785 633.809 485.135 632.669 484.845 631.359C484.835 631.319 484.825 631.279 484.815 631.229C484.785 631.089 484.765 630.949 484.745 630.799C484.515 629.119 484.815 627.199 485.495 625.309C485.525 625.229 485.555 625.149 485.585 625.069C486.885 621.609 489.445 618.279 492.295 616.759C492.575 616.609 492.855 616.479 493.135 616.369C493.165 616.359 493.195 616.339 493.225 616.329C493.565 616.199 493.905 616.099 494.245 616.019C495.345 615.779 496.455 615.849 497.515 616.319C497.395 616.259 497.275 616.199 497.155 616.139C491.855 613.399 484.975 607.089 478.695 609.809C474.935 611.169 472.195 614.689 471.815 618.709C471.785 619.009 471.765 619.309 471.765 619.609C471.565 628.309 480.915 630.629 486.885 634.629Z" fill="white"/>
<path d="M484.745 630.799C484.765 630.939 484.795 631.089 484.825 631.229C484.835 631.269 484.845 631.319 484.855 631.359C485.155 632.619 485.805 633.749 486.895 634.629C492.815 637.689 498.995 643.519 505.425 641.299C506.715 640.859 508.005 640.099 509.315 638.919C514.485 634.269 513.375 625.349 507.385 622.059L497.525 616.329C497.405 616.259 497.285 616.199 497.165 616.149C496.325 615.779 495.325 615.719 494.215 616.009C493.895 616.089 493.575 616.199 493.235 616.339C493.205 616.349 493.175 616.359 493.145 616.379C492.875 616.499 492.605 616.629 492.325 616.789H492.315C489.725 618.179 486.995 621.519 485.595 625.079C485.565 625.159 485.535 625.239 485.505 625.319C484.805 627.179 484.475 629.089 484.745 630.799Z" fill="url(#paint56_linear_42_390)"/>
<path opacity="0.44" d="M508.705 626.469C508.375 626.209 507.935 625.909 507.545 625.659C507.455 625.599 507.365 625.539 507.265 625.479C504.205 623.699 500.135 621.339 497.075 619.559C494.015 617.779 489.945 615.419 486.885 613.639C486.535 613.449 486.065 613.199 485.705 613.049C485.335 612.889 484.835 612.699 484.445 612.599C483.955 612.469 483.295 612.329 482.795 612.249C482.645 612.229 482.465 612.209 482.295 612.199C482.655 612.109 483.115 611.999 483.475 611.949C483.845 611.899 484.345 611.859 484.715 611.859C485.045 611.859 485.485 611.879 485.815 611.929C486.215 611.989 486.745 612.099 487.135 612.209C487.445 612.289 487.845 612.449 488.145 612.569C488.435 612.689 488.805 612.889 489.085 613.039C491.515 614.459 494.765 616.339 497.205 617.759C499.635 619.169 502.885 621.059 505.325 622.479C505.405 622.519 505.475 622.569 505.545 622.619C505.855 622.819 506.205 623.059 506.465 623.269C506.715 623.469 507.025 623.769 507.245 623.989C507.485 624.229 508.055 624.889 508.485 625.639C508.715 626.039 508.885 626.399 509.025 626.739C508.895 626.629 508.795 626.539 508.705 626.469Z" fill="white"/>
<path d="M486.885 634.629C492.805 637.689 498.985 643.519 505.415 641.299C499.645 640.779 494.065 635.969 488.675 633.189C487.505 632.369 486.165 631.599 484.745 630.809C484.745 630.809 484.735 630.809 484.735 630.799C479.705 627.979 473.795 624.879 471.805 618.719C471.775 619.019 471.755 619.319 471.755 619.619C471.565 628.309 480.915 630.629 486.885 634.629Z" fill="url(#paint57_linear_42_390)"/>
<path opacity="0.13" d="M486.354 635.709C493.124 639.209 500.194 645.879 507.554 643.339C509.024 642.829 510.504 641.959 512.004 640.619C517.924 635.299 516.654 625.089 509.794 621.329L498.514 614.769C498.374 614.699 498.234 614.629 498.094 614.559C492.034 611.419 484.164 604.209 476.974 607.309C472.674 608.869 469.534 612.889 469.094 617.489C469.064 617.829 469.044 618.179 469.044 618.529C468.824 628.479 479.524 631.129 486.354 635.709Z" fill="url(#paint58_radial_42_390)"/>
<path d="M541.194 669.298C547.964 672.798 555.034 679.468 562.394 676.928C563.864 676.418 565.344 675.548 566.844 674.208C572.764 668.888 571.494 658.678 564.634 654.918L553.354 648.358C553.214 648.288 553.074 648.218 552.934 648.148C546.874 645.008 539.004 637.798 531.814 640.898C527.514 642.458 524.374 646.478 523.934 651.078C523.904 651.418 523.884 651.768 523.884 652.118C523.664 662.068 534.364 664.718 541.194 669.298Z" fill="url(#paint59_radial_42_390)"/>
<path d="M542.474 666.708C541.374 665.888 540.724 664.748 540.434 663.438C540.424 663.398 540.414 663.358 540.404 663.308C540.374 663.168 540.354 663.028 540.334 662.878C540.104 661.198 540.404 659.278 541.084 657.388C541.114 657.308 541.144 657.228 541.174 657.148C542.474 653.688 545.034 650.358 547.884 648.838C548.164 648.688 548.444 648.558 548.724 648.448C548.754 648.438 548.784 648.418 548.814 648.408C549.154 648.278 549.494 648.178 549.834 648.098C550.934 647.858 552.044 647.928 553.104 648.398C552.984 648.338 552.864 648.278 552.744 648.218C547.444 645.478 540.564 639.168 534.284 641.888C530.524 643.248 527.784 646.768 527.404 650.788C527.374 651.088 527.354 651.388 527.354 651.688C527.164 660.388 536.504 662.708 542.474 666.708Z" fill="white"/>
<path d="M540.334 662.878C540.354 663.018 540.384 663.168 540.414 663.308C540.424 663.348 540.434 663.398 540.444 663.438C540.744 664.698 541.394 665.828 542.484 666.708C548.404 669.768 554.584 675.598 561.014 673.378C562.304 672.938 563.594 672.178 564.904 670.998C570.074 666.348 568.964 657.428 562.974 654.138L553.114 648.408C552.994 648.338 552.874 648.278 552.754 648.228C551.914 647.858 550.914 647.798 549.804 648.088C549.484 648.168 549.164 648.278 548.824 648.418C548.794 648.428 548.764 648.438 548.734 648.458C548.464 648.578 548.194 648.708 547.914 648.868H547.904C545.314 650.258 542.584 653.598 541.184 657.158C541.154 657.238 541.124 657.318 541.094 657.398C540.394 659.268 540.074 661.178 540.334 662.878Z" fill="url(#paint60_linear_42_390)"/>
<path opacity="0.44" d="M564.295 658.548C563.965 658.288 563.525 657.988 563.135 657.738C563.045 657.678 562.955 657.618 562.855 657.558C559.795 655.778 555.725 653.418 552.665 651.638C549.605 649.858 545.535 647.498 542.475 645.718C542.125 645.528 541.655 645.278 541.295 645.128C540.925 644.968 540.425 644.778 540.035 644.678C539.545 644.548 538.885 644.408 538.385 644.328C538.235 644.308 538.055 644.288 537.885 644.278C538.245 644.188 538.705 644.078 539.065 644.028C539.435 643.978 539.935 643.938 540.305 643.938C540.635 643.938 541.075 643.958 541.405 644.008C541.805 644.068 542.335 644.178 542.725 644.288C543.035 644.368 543.435 644.528 543.735 644.648C544.025 644.768 544.395 644.968 544.675 645.118C547.105 646.538 550.355 648.418 552.795 649.838C555.225 651.248 558.475 653.138 560.915 654.558C560.995 654.598 561.065 654.648 561.135 654.698C561.445 654.898 561.795 655.138 562.055 655.348C562.305 655.548 562.615 655.848 562.835 656.068C563.075 656.308 563.645 656.968 564.075 657.718C564.305 658.118 564.475 658.478 564.615 658.818C564.495 658.708 564.395 658.628 564.295 658.548Z" fill="white"/>
<path d="M542.474 666.708C548.394 669.768 554.574 675.598 561.004 673.378C555.234 672.858 549.654 668.048 544.264 665.268C543.094 664.448 541.754 663.678 540.334 662.888C540.334 662.888 540.324 662.888 540.324 662.878C535.294 660.058 529.384 656.958 527.394 650.798C527.364 651.098 527.344 651.398 527.344 651.698C527.164 660.388 536.504 662.708 542.474 666.708Z" fill="url(#paint61_linear_42_390)"/>
<path opacity="0.13" d="M541.944 667.788C548.714 671.288 555.784 677.958 563.144 675.418C564.614 674.908 566.094 674.038 567.594 672.698C573.514 667.378 572.244 657.168 565.384 653.408L554.104 646.848C553.964 646.778 553.824 646.708 553.684 646.638C547.624 643.498 539.754 636.288 532.564 639.388C528.264 640.948 525.124 644.968 524.684 649.568C524.654 649.908 524.634 650.258 524.634 650.608C524.424 660.558 535.114 663.208 541.944 667.788Z" fill="url(#paint62_radial_42_390)"/>
<path d="M442.835 662.318C449.605 665.818 456.675 672.488 464.035 669.948C465.505 669.438 466.985 668.568 468.485 667.228C474.405 661.908 473.135 651.698 466.275 647.938L454.995 641.378C454.855 641.308 454.715 641.238 454.575 641.168C448.515 638.028 440.645 630.818 433.455 633.918C429.155 635.478 426.015 639.498 425.575 644.098C425.545 644.438 425.525 644.788 425.525 645.138C425.305 655.078 436.005 657.728 442.835 662.318Z" fill="url(#paint63_radial_42_390)"/>
<path d="M444.115 659.728C443.015 658.908 442.365 657.768 442.075 656.458C442.065 656.418 442.055 656.378 442.045 656.328C442.015 656.188 441.995 656.048 441.975 655.898C441.745 654.218 442.045 652.298 442.725 650.408C442.755 650.328 442.785 650.248 442.815 650.168C444.115 646.708 446.675 643.378 449.525 641.858C449.805 641.708 450.085 641.578 450.365 641.468C450.395 641.458 450.425 641.438 450.455 641.428C450.795 641.298 451.135 641.198 451.475 641.118C452.575 640.878 453.685 640.948 454.745 641.418C454.625 641.358 454.505 641.298 454.385 641.238C449.085 638.498 442.205 632.188 435.925 634.908C432.165 636.268 429.425 639.788 429.045 643.808C429.015 644.108 428.995 644.408 428.995 644.708C428.795 653.408 438.145 655.718 444.115 659.728Z" fill="white"/>
<path d="M441.976 655.898C441.996 656.038 442.026 656.188 442.056 656.328C442.066 656.368 442.076 656.418 442.086 656.458C442.386 657.718 443.036 658.848 444.126 659.728C450.046 662.788 456.226 668.618 462.656 666.398C463.946 665.958 465.236 665.198 466.546 664.018C471.716 659.368 470.606 650.448 464.616 647.158L454.756 641.428C454.636 641.358 454.516 641.298 454.396 641.248C453.556 640.878 452.556 640.818 451.446 641.108C451.126 641.188 450.806 641.298 450.466 641.438C450.436 641.448 450.406 641.458 450.376 641.478C450.106 641.598 449.836 641.728 449.556 641.888H449.546C446.956 643.278 444.226 646.618 442.826 650.178C442.796 650.258 442.766 650.338 442.736 650.418C442.036 652.278 441.716 654.188 441.976 655.898Z" fill="url(#paint64_linear_42_390)"/>
<path opacity="0.44" d="M465.935 651.569C465.605 651.309 465.165 651.008 464.775 650.758C464.685 650.698 464.595 650.638 464.495 650.578C461.435 648.798 457.365 646.439 454.305 644.659C451.245 642.879 447.175 640.519 444.115 638.739C443.765 638.549 443.295 638.298 442.935 638.148C442.565 637.988 442.065 637.798 441.675 637.698C441.185 637.568 440.525 637.429 440.025 637.349C439.875 637.329 439.695 637.309 439.525 637.299C439.885 637.209 440.345 637.099 440.705 637.049C441.075 636.999 441.575 636.958 441.945 636.958C442.275 636.958 442.715 636.979 443.045 637.029C443.445 637.089 443.975 637.199 444.365 637.309C444.675 637.389 445.075 637.549 445.375 637.669C445.665 637.789 446.035 637.988 446.315 638.138C448.745 639.558 451.995 641.439 454.435 642.859C456.865 644.269 460.115 646.158 462.555 647.578C462.635 647.618 462.705 647.669 462.775 647.719C463.085 647.919 463.435 648.159 463.695 648.369C463.945 648.569 464.255 648.869 464.475 649.089C464.715 649.329 465.285 649.989 465.715 650.739C465.945 651.139 466.115 651.499 466.255 651.839C466.135 651.729 466.035 651.639 465.935 651.569Z" fill="white"/>
<path d="M444.115 659.728C450.035 662.788 456.215 668.618 462.645 666.398C456.875 665.878 451.295 661.068 445.905 658.288C444.735 657.468 443.395 656.698 441.975 655.908C441.975 655.908 441.965 655.908 441.965 655.898C436.935 653.078 431.025 649.978 429.035 643.818C429.005 644.118 428.985 644.418 428.985 644.718C428.795 653.408 438.145 655.718 444.115 659.728Z" fill="url(#paint65_linear_42_390)"/>
<path opacity="0.13" d="M443.585 660.808C450.355 664.308 457.425 670.978 464.785 668.438C466.255 667.928 467.735 667.058 469.235 665.718C475.155 660.398 473.885 650.188 467.025 646.428L455.745 639.868C455.605 639.798 455.465 639.728 455.325 639.658C449.265 636.518 441.395 629.308 434.205 632.408C429.905 633.968 426.765 637.988 426.325 642.588C426.295 642.928 426.275 643.278 426.275 643.628C426.065 653.578 436.755 656.228 443.585 660.808Z" fill="url(#paint66_radial_42_390)"/>
<path d="M498.424 694.398C505.194 697.898 512.264 704.568 519.624 702.028C521.094 701.518 522.574 700.648 524.074 699.308C529.994 693.988 528.724 683.778 521.864 680.018L510.584 673.458C510.444 673.388 510.304 673.318 510.164 673.248C504.104 670.108 496.234 662.898 489.044 665.998C484.744 667.558 481.604 671.578 481.164 676.178C481.134 676.518 481.114 676.868 481.114 677.218C480.904 687.168 491.594 689.818 498.424 694.398Z" fill="url(#paint67_radial_42_390)"/>
<path d="M499.714 691.809C498.614 690.989 497.964 689.849 497.674 688.539C497.664 688.499 497.654 688.459 497.644 688.409C497.614 688.269 497.594 688.129 497.574 687.979C497.344 686.299 497.644 684.379 498.324 682.489C498.354 682.409 498.384 682.329 498.414 682.249C499.714 678.789 502.274 675.459 505.124 673.939C505.404 673.789 505.684 673.659 505.964 673.549C505.994 673.539 506.024 673.519 506.054 673.509C506.394 673.379 506.734 673.279 507.074 673.199C508.174 672.959 509.284 673.029 510.344 673.499C510.224 673.439 510.104 673.379 509.984 673.319C504.684 670.579 497.804 664.269 491.524 666.989C487.764 668.349 485.024 671.869 484.644 675.889C484.614 676.189 484.594 676.489 484.594 676.789C484.394 685.489 493.744 687.809 499.714 691.809Z" fill="white"/>
<path d="M497.564 687.979C497.584 688.119 497.614 688.269 497.644 688.409C497.654 688.449 497.664 688.499 497.674 688.539C497.974 689.799 498.624 690.929 499.714 691.809C505.634 694.869 511.814 700.699 518.244 698.479C519.534 698.039 520.824 697.279 522.134 696.099C527.304 691.449 526.194 682.529 520.204 679.239L510.344 673.509C510.224 673.439 510.104 673.379 509.984 673.329C509.144 672.959 508.144 672.899 507.034 673.189C506.714 673.269 506.394 673.379 506.054 673.519C506.024 673.529 505.994 673.539 505.964 673.559C505.694 673.679 505.424 673.809 505.144 673.969H505.134C502.544 675.359 499.814 678.699 498.414 682.259C498.384 682.339 498.354 682.419 498.324 682.499C497.624 684.369 497.304 686.279 497.564 687.979Z" fill="url(#paint68_linear_42_390)"/>
<path opacity="0.44" d="M521.534 683.649C521.204 683.389 520.764 683.089 520.374 682.839C520.284 682.779 520.194 682.719 520.094 682.659C517.034 680.879 512.964 678.519 509.904 676.739C506.844 674.959 502.774 672.599 499.714 670.819C499.364 670.629 498.894 670.379 498.534 670.229C498.164 670.069 497.664 669.879 497.274 669.779C496.784 669.649 496.124 669.509 495.624 669.429C495.474 669.409 495.294 669.389 495.124 669.379C495.484 669.289 495.944 669.179 496.304 669.129C496.674 669.079 497.174 669.039 497.544 669.039C497.874 669.039 498.314 669.059 498.644 669.109C499.044 669.169 499.574 669.279 499.964 669.389C500.274 669.469 500.674 669.629 500.974 669.749C501.264 669.869 501.634 670.069 501.914 670.219C504.344 671.639 507.594 673.519 510.034 674.939C512.464 676.349 515.714 678.239 518.154 679.659C518.234 679.699 518.304 679.749 518.374 679.799C518.684 679.999 519.034 680.239 519.294 680.449C519.544 680.649 519.854 680.949 520.074 681.169C520.314 681.409 520.884 682.069 521.314 682.819C521.544 683.219 521.714 683.579 521.854 683.919C521.724 683.809 521.624 683.729 521.534 683.649Z" fill="white"/>
<path d="M499.714 691.809C505.634 694.869 511.814 700.699 518.244 698.479C512.474 697.959 506.894 693.149 501.504 690.369C500.334 689.549 498.994 688.779 497.574 687.989C497.574 687.989 497.564 687.989 497.564 687.979C492.534 685.159 486.624 682.058 484.634 675.898C484.604 676.198 484.584 676.499 484.584 676.799C484.394 685.489 493.744 687.809 499.714 691.809Z" fill="url(#paint69_linear_42_390)"/>
<path opacity="0.13" d="M499.184 692.888C505.954 696.388 513.024 703.058 520.384 700.518C521.854 700.008 523.334 699.138 524.834 697.798C530.754 692.478 529.484 682.268 522.624 678.508L511.344 671.948C511.204 671.878 511.064 671.808 510.924 671.738C504.864 668.598 496.994 661.388 489.804 664.488C485.504 666.048 482.364 670.068 481.924 674.668C481.894 675.008 481.874 675.358 481.874 675.708C481.654 685.658 492.344 688.308 499.184 692.888Z" fill="url(#paint70_radial_42_390)"/>
<path d="M469.517 642.847C472.197 640.847 473.787 638.067 474.487 634.857C474.517 634.757 474.537 634.657 474.557 634.547C474.627 634.207 474.687 633.857 474.737 633.507C475.307 629.407 474.567 624.727 472.907 620.107C472.837 619.917 472.757 619.727 472.687 619.527C469.507 611.077 463.257 602.957 456.317 599.247C455.637 598.877 454.957 598.557 454.267 598.287C454.187 598.247 454.117 598.217 454.047 598.197C453.217 597.877 452.387 597.627 451.557 597.447C448.877 596.867 446.177 597.037 443.577 598.187C443.867 598.037 444.167 597.897 444.467 597.737C457.407 591.047 474.197 575.647 489.527 582.277C498.707 585.607 505.397 594.177 506.337 603.997C506.407 604.727 506.447 605.467 506.447 606.207C506.917 627.417 484.097 633.067 469.517 642.847Z" fill="url(#paint71_linear_42_390)"/>
<path d="M474.747 633.497C474.697 633.847 474.627 634.197 474.547 634.547C474.527 634.647 474.507 634.757 474.477 634.857C473.747 637.927 472.167 640.687 469.507 642.847C455.057 650.307 439.977 664.537 424.267 659.137C421.127 658.057 417.967 656.197 414.777 653.337C402.157 641.997 404.867 620.197 419.487 612.187L443.557 598.197C443.847 598.027 444.137 597.877 444.447 597.747C446.487 596.857 448.937 596.707 451.647 597.397C452.417 597.597 453.217 597.857 454.037 598.207C454.107 598.227 454.177 598.257 454.257 598.297C454.917 598.577 455.587 598.907 456.267 599.287C456.267 599.287 456.277 599.287 456.287 599.297C462.607 602.687 469.277 610.857 472.677 619.547C472.757 619.737 472.827 619.927 472.897 620.127C474.607 624.657 475.397 629.327 474.747 633.497Z" fill="url(#paint72_linear_42_390)"/>
<path opacity="0.44" d="M416.257 622.917C417.067 622.287 418.137 621.547 419.087 620.927C419.307 620.777 419.527 620.627 419.757 620.497C427.217 616.157 437.167 610.377 444.627 606.047C452.087 601.707 462.037 595.927 469.497 591.597C470.347 591.127 471.487 590.527 472.377 590.147C473.277 589.757 474.507 589.297 475.457 589.037C476.647 588.717 478.267 588.367 479.487 588.197C479.857 588.147 480.287 588.097 480.717 588.067C479.847 587.847 478.717 587.577 477.847 587.447C476.947 587.317 475.737 587.227 474.827 587.237C474.017 587.247 472.937 587.297 472.147 587.407C471.167 587.547 469.887 587.817 468.937 588.077C468.177 588.277 467.197 588.647 466.487 588.957C465.777 589.257 464.867 589.737 464.187 590.117C458.247 593.567 450.317 598.177 444.377 601.627C438.437 605.077 430.507 609.687 424.567 613.137C424.387 613.247 424.207 613.357 424.037 613.487C423.277 613.977 422.427 614.567 421.787 615.067C421.177 615.547 420.427 616.277 419.877 616.827C419.287 617.417 417.887 619.027 416.847 620.857C416.287 621.847 415.877 622.717 415.537 623.537C415.777 623.307 416.027 623.097 416.257 622.917Z" fill="url(#paint73_linear_42_390)"/>
<path opacity="0.05" d="M469.517 642.847C455.067 650.307 439.987 664.537 424.277 659.137C438.357 657.857 451.977 646.137 465.137 639.337C467.987 637.347 471.267 635.457 474.727 633.517C474.737 633.517 474.737 633.507 474.747 633.507C487.027 626.617 501.467 619.067 506.317 604.017C506.387 604.747 506.427 605.487 506.427 606.227C506.917 627.417 484.097 633.067 469.517 642.847Z" fill="url(#paint74_linear_42_390)"/>
<path d="M425.847 647.147C426.497 643.867 425.807 640.737 424.177 637.887C424.127 637.797 424.077 637.707 424.017 637.617C423.837 637.317 423.647 637.017 423.447 636.727C421.117 633.307 417.427 630.327 413.107 628.017C412.927 627.917 412.737 627.827 412.557 627.737C404.527 623.597 394.457 621.767 386.817 623.667C386.067 623.847 385.347 624.067 384.647 624.327C384.567 624.347 384.497 624.377 384.427 624.407C383.597 624.727 382.817 625.097 382.077 625.527C379.697 626.897 377.807 628.837 376.647 631.427C376.767 631.127 376.887 630.817 377.007 630.497C382.117 616.857 383.547 600.237 399.367 594.877C408.407 591.187 419.127 593.057 426.397 599.717C426.937 600.207 427.467 600.727 427.967 601.277C442.537 616.677 430.097 630.117 425.847 647.147Z" fill="url(#paint75_linear_42_390)"/>
<path d="M423.457 636.696C423.657 636.996 423.837 637.296 424.017 637.606C424.067 637.696 424.127 637.786 424.177 637.876C425.697 640.646 426.367 643.746 425.847 647.136C420.137 662.366 418.867 678.896 403.587 685.426C400.537 686.736 396.937 687.466 392.657 687.486C375.687 687.536 363.077 669.546 368.547 653.796L376.647 631.416C376.747 631.096 376.867 630.786 377.007 630.486C377.927 628.456 379.637 626.696 382.117 625.396C382.827 625.026 383.597 624.686 384.427 624.396C384.497 624.366 384.567 624.336 384.647 624.316C385.327 624.086 386.037 623.876 386.797 623.706C386.807 623.706 386.807 623.696 386.817 623.696C393.777 621.966 404.207 623.556 412.557 627.716C412.747 627.806 412.927 627.896 413.107 627.996C417.427 630.246 421.137 633.176 423.457 636.696Z" fill="url(#paint76_linear_42_390)"/>
<path opacity="0.44" d="M373.348 663.947C373.518 662.937 373.828 661.677 374.108 660.577C374.168 660.317 374.238 660.057 374.318 659.807C376.948 651.587 380.068 644.767 382.698 636.547C385.328 628.327 388.128 623.427 390.748 615.207C391.058 614.287 391.508 613.077 391.908 612.197C392.318 611.307 392.918 610.137 393.448 609.307C394.118 608.267 395.088 606.927 395.878 605.977C396.118 605.687 396.408 605.367 396.708 605.057C395.908 605.477 394.898 606.027 394.168 606.527C393.418 607.037 392.448 607.777 391.778 608.397C391.188 608.947 390.418 609.707 389.908 610.327C389.278 611.087 388.508 612.157 387.978 612.977C387.558 613.637 387.078 614.567 386.748 615.277C386.428 615.977 386.068 616.947 385.818 617.677C383.728 624.227 381.638 626.897 379.548 633.447C377.458 639.997 375.038 644.587 372.948 651.137C372.888 651.337 372.828 651.547 372.778 651.747C372.548 652.617 372.308 653.627 372.168 654.437C372.038 655.207 371.978 656.247 371.938 657.017C371.898 657.857 371.938 659.977 372.398 662.037C372.648 663.147 372.918 664.067 373.218 664.897C373.258 664.557 373.298 664.237 373.348 663.947Z" fill="url(#paint77_linear_42_390)"/>
<path opacity="0.05" d="M425.847 647.147C420.137 662.377 418.867 678.907 403.587 685.437C413.177 675.047 415.037 661.347 420.247 647.477C421.027 644.087 422.187 640.487 423.457 636.727C423.457 636.717 423.457 636.707 423.467 636.707C427.957 623.357 432.897 614.137 426.407 599.717C426.947 600.207 427.477 600.727 427.977 601.277C442.537 616.677 430.097 630.117 425.847 647.147Z" fill="url(#paint78_linear_42_390)"/>
<path d="M400.589 566.777L400.737 566.938H400.956H405.893V579.335H405.886L405.86 579.807C405.514 586.108 401.177 592.445 392.637 597.376C383.727 602.521 372.018 605.108 360.282 605.108C348.546 605.108 336.837 602.521 327.927 597.376L327.927 597.376C319.383 592.445 315.05 586.108 314.704 579.807L314.678 579.335H314.671V566.938H319.608H319.827L319.975 566.777C322.024 564.564 324.669 562.473 327.926 560.594L327.927 560.594C336.837 555.449 348.546 552.862 360.282 552.862C372.018 552.862 383.727 555.449 392.637 560.594C395.896 562.477 398.54 564.564 400.589 566.777Z" fill="url(#paint79_linear_42_390)" stroke="#7B848F"/>
<path d="M405.893 567.06C405.893 574.157 400.906 580.678 392.637 585.452C384.381 590.219 372.942 593.183 360.28 593.183C347.618 593.183 336.179 590.219 327.923 585.452C319.654 580.678 314.667 574.157 314.667 567.06C314.667 559.962 319.654 553.442 327.923 548.667C336.179 543.901 347.618 540.937 360.28 540.937C372.942 540.937 384.381 543.901 392.637 548.667C400.906 553.442 405.893 559.962 405.893 567.06Z" fill="url(#paint80_linear_42_390)" stroke="#7B848F"/>
<path d="M399.245 564.489L399.393 564.649H399.612H404.361V566.781H404.354L404.328 567.254C403.994 573.329 399.816 579.444 391.573 584.204C382.974 589.17 371.672 591.667 360.343 591.667C349.014 591.667 337.712 589.17 329.113 584.204C320.87 579.444 316.692 573.329 316.358 567.254L316.332 566.781H316.325V564.649H321.075H321.293L321.441 564.489C323.42 562.355 325.968 560.338 329.113 558.522L329.113 558.522C337.712 553.557 349.014 551.06 360.343 551.06C371.672 551.06 382.974 553.557 391.573 558.522C394.714 560.339 397.267 562.355 399.245 564.489Z" fill="url(#paint81_linear_42_390)" stroke="#7B848F"/>
<path d="M393.137 581.021L393.135 581.022C392.63 581.346 392.11 581.66 391.568 581.975L391.566 581.976C391.442 582.048 391.322 582.115 391.197 582.185C391.133 582.221 391.066 582.258 390.998 582.297C382.379 587.102 371.172 589.491 359.969 589.437C348.765 589.383 337.617 586.886 329.113 581.974L329.113 581.974C320.524 577.016 316.341 570.723 316.321 564.536C316.302 558.348 320.445 552.049 328.993 547.075L329.006 547.067L329.019 547.059L329.044 547.042L329.047 547.04C329.048 547.039 329.049 547.039 329.05 547.038L329.059 547.034L329.072 547.027C329.081 547.022 329.096 547.014 329.111 547.005L329.111 547.006L329.114 547.004C329.789 546.613 330.487 546.237 331.198 545.877L331.209 545.872L331.22 545.865L331.239 545.855C339.892 541.468 350.835 539.36 361.7 539.552C372.57 539.744 383.315 542.237 391.569 547.004L391.797 546.609L391.569 547.004C399.907 551.82 404.093 557.894 404.348 563.904C404.603 569.908 400.941 576.049 393.137 581.021Z" fill="#E8EFFC" stroke="#7B848F"/>
<path d="M392.441 581.46L392.933 581.744C392.744 581.862 392.552 581.979 392.358 582.094C392.182 582.198 392.003 582.303 391.819 582.407C391.691 582.482 391.563 582.554 391.435 582.625C391.371 582.661 391.307 582.697 391.243 582.733M392.441 581.46C392.603 581.361 392.764 581.261 392.922 581.161L331.002 545.415M392.441 581.46L330.991 545.986M392.441 581.46C392.329 581.528 392.216 581.596 392.103 581.664L392.102 581.664C391.93 581.767 391.753 581.869 391.572 581.972L391.572 581.972L391.566 581.976C391.458 582.039 391.354 582.098 391.246 582.158M331.002 545.415L330.972 545.427M331.002 545.415L330.983 545.447L330.972 545.427M331.002 545.415L331.136 545.729L331.211 545.866L331.198 545.873L331.199 545.874L331.191 545.877L330.991 545.986M330.972 545.427L329.882 546.02L329.255 546.361L329.763 546.654M330.972 545.427L330.982 545.449L330.752 545.848L330.991 545.986M329.763 546.654L329.247 546.934L391.243 582.733M329.763 546.654L391.246 582.158M329.763 546.654L330.121 546.459L330.121 546.459L330.991 545.986M391.243 582.733L390.997 582.297C391.066 582.258 391.132 582.221 391.198 582.185C391.214 582.176 391.23 582.167 391.246 582.158M391.243 582.733L391.493 582.3L391.246 582.158" fill="url(#paint82_linear_42_390)" stroke="#7B848F"/>
<path d="M330.991 545.986L392.441 581.46C392.411 581.478 392.382 581.496 392.353 581.514L330.904 546.033L330.991 545.986Z" fill="url(#paint83_linear_42_390)" stroke="#7B848F"/>
<path d="M329.543 537.759C326.611 537.609 323.367 537.947 319.846 538.841C300.607 543.727 280.644 563.171 275.257 582.273C274.272 585.768 273.846 589.005 273.921 591.937L270.204 595.557L279.129 604.72L279.154 604.695C283.747 608.917 291.118 610.353 300.335 608.015C319.575 603.129 339.537 583.684 344.924 564.583C347.505 555.429 346.265 548.02 342.164 543.322L342.189 543.297L333.264 534.134L329.543 537.759Z" fill="url(#paint84_linear_42_390)"/>
<path d="M319.87 583.455C337.283 566.492 343.46 544.591 333.667 534.538C323.873 524.485 301.818 530.087 284.405 547.05C266.992 564.014 260.815 585.915 270.608 595.968C280.402 606.021 302.457 600.419 319.87 583.455Z" fill="#E8EFFC"/>
<path d="M327.1 537.091C324.273 536.945 321.137 537.275 317.737 538.135C299.162 542.85 279.889 561.626 274.69 580.072C273.737 583.447 273.328 586.571 273.399 589.402L269.808 592.897L271.892 595.04L271.917 595.019C276.352 599.099 283.468 600.481 292.367 598.222C310.943 593.507 330.216 574.731 335.415 556.285C337.908 547.448 336.71 540.295 332.747 535.755L332.772 535.734L330.688 533.592L327.1 537.091Z" fill="url(#paint85_linear_42_390)"/>
<path d="M334.38 553.048C334.25 553.616 334.1 554.184 333.937 554.765C333.878 554.969 333.82 555.17 333.757 555.37C328.316 573.616 309.26 592.033 290.889 596.697C272.359 601.404 261.869 590.692 266.985 572.325L266.993 572.296C267.001 572.263 267.014 572.229 267.022 572.196C267.227 571.469 267.457 570.738 267.703 570.012L267.715 569.983C273.763 552.271 292.238 534.79 310.07 530.263C328.057 525.694 338.472 535.654 334.38 553.048Z" fill="#E8EFFC"/>
<path d="M334.379 553.048C334.292 553.428 334.196 553.808 334.095 554.193C334.045 554.381 333.991 554.573 333.937 554.765C333.882 554.969 333.82 555.17 333.757 555.37L266.984 572.326L266.989 572.3L267.348 571.144L267.699 570.012L267.711 569.983L334.379 553.048Z" fill="url(#paint86_linear_42_390)"/>
<path d="M334.379 553.048C334.291 553.428 334.195 553.808 334.095 554.193L267.352 571.139L267.702 570.008L267.715 569.978L334.379 553.048Z" fill="#E8EFFC"/>
<path d="M171.15 582.732V606.739L403.57 741.545V717.538L175.421 585.199L171.15 582.732Z" fill="url(#paint87_linear_42_390)"/>
<path d="M175.421 585.199V603.87L403.591 736.224V717.553L191.589 594.536L175.421 585.199Z" fill="url(#paint88_linear_42_390)"/>
<path d="M175.421 585.199V603.87L191.589 594.536L175.421 585.199Z" fill="url(#paint89_linear_42_390)"/>
<path d="M392.969 721.477C392.267 720.681 391.351 719.937 390.204 719.278L201.982 610.603C196.102 607.214 186.567 607.214 180.695 610.603L71.0535 673.897C69.7268 674.659 68.7168 675.532 67.9892 676.465L66.6455 676.277V680.111H66.6541C66.6883 682.311 68.1519 684.502 71.062 686.188L259.293 794.863C265.173 798.252 274.708 798.252 280.58 794.863L390.221 731.568C393.012 729.951 394.467 727.871 394.604 725.757L394.638 725.765V721.708L392.969 721.477Z" fill="url(#paint90_linear_42_390)"/>
<path d="M201.973 606.76L390.195 715.435C396.075 718.824 396.075 724.336 390.195 727.726L280.554 791.02C274.674 794.41 265.139 794.41 259.267 791.02L71.036 682.346C65.156 678.956 65.156 673.444 71.036 670.055L180.669 606.76C186.558 603.362 196.093 603.362 201.973 606.76Z" fill="url(#paint91_linear_42_390)"/>
<path opacity="0.6" d="M390.204 727.726L384.58 730.97L360.178 745.058L280.57 791.02C274.69 794.409 265.155 794.409 259.284 791.02L71.0614 682.345C65.1813 678.956 65.1813 673.444 71.0614 670.055L150.669 624.092L175.08 610.004L180.695 606.76C186.575 603.371 196.109 603.371 201.99 606.76L390.212 715.435C396.084 718.824 396.084 724.328 390.204 727.726Z" fill="url(#paint92_linear_42_390)"/>
<path d="M164.835 638.018L174.027 643.324C174.395 643.538 174.395 643.889 174.027 644.095L171.836 645.362C171.468 645.576 170.869 645.576 170.501 645.362L161.308 640.055C160.94 639.841 160.94 639.49 161.308 639.285L163.499 638.018C163.867 637.804 164.467 637.804 164.835 638.018Z" fill="white" fill-opacity="0.75"/>
<path d="M177.374 645.259L201.955 659.45C202.323 659.664 202.323 660.015 201.955 660.22L199.764 661.487C199.396 661.701 198.797 661.701 198.429 661.487L173.847 647.296C173.479 647.082 173.479 646.731 173.847 646.526L176.038 645.259C176.406 645.045 177.006 645.045 177.374 645.259Z" fill="white" fill-opacity="0.75"/>
<path d="M180.66 628.783L199.627 639.73C200.509 640.235 200.509 641.065 199.627 641.579L196.212 643.547C195.331 644.052 193.901 644.052 193.02 643.547L174.053 632.6C173.171 632.095 173.171 631.265 174.053 630.752L177.468 628.783C178.349 628.278 179.779 628.278 180.66 628.783Z" fill="white" fill-opacity="0.75"/>
<path d="M208.426 644.805L227.393 655.753C228.274 656.258 228.274 657.088 227.393 657.601L223.978 659.57C223.096 660.075 221.667 660.075 220.785 659.57L201.818 648.623C200.937 648.118 200.937 647.288 201.818 646.774L205.233 644.805C206.107 644.301 207.544 644.301 208.426 644.805Z" fill="white" fill-opacity="0.75"/>
<path d="M236.184 660.837L255.151 671.784C256.032 672.289 256.032 673.119 255.151 673.633L251.736 675.601C250.854 676.106 249.425 676.106 248.543 675.601L229.576 664.654C228.695 664.149 228.695 663.319 229.576 662.805L232.991 660.837C233.873 660.323 235.294 660.323 236.184 660.837Z" fill="white" fill-opacity="0.75"/>
<path d="M263.941 676.859L282.908 687.806C283.789 688.311 283.789 689.141 282.908 689.655L279.493 691.624C278.611 692.129 277.181 692.129 276.3 691.624L257.333 680.677C256.451 680.172 256.451 679.341 257.333 678.828L260.748 676.859C261.621 676.354 263.059 676.354 263.941 676.859Z" fill="white" fill-opacity="0.75"/>
<path opacity="0.6" fill-rule="evenodd" clip-rule="evenodd" d="M327.517 764.898L303.115 778.986L93.5889 658.021L117.999 643.933L327.517 764.898Z" fill="url(#paint93_linear_42_390)"/>
</g>
<defs>
<linearGradient id="paint0_linear_42_390" x1="1839.17" y1="1031.52" x2="391.194" y2="221.997" gradientUnits="userSpaceOnUse">
<stop stop-color="#00A3E8"/>
<stop offset="1" stop-color="#3230AA"/>
</linearGradient>
<linearGradient id="paint1_linear_42_390" x1="940.504" y1="1281.65" x2="733.939" y2="-163.798" gradientUnits="userSpaceOnUse">
<stop stop-color="#00A3E8"/>
<stop offset="1" stop-color="#3230CA"/>
</linearGradient>
<linearGradient id="paint2_linear_42_390" x1="932.658" y1="1392.97" x2="672.53" y2="203.687" gradientUnits="userSpaceOnUse">
<stop stop-color="#00A3E8"/>
<stop offset="1" stop-color="#3230CA"/>
</linearGradient>
<linearGradient id="paint3_linear_42_390" x1="699.184" y1="974.486" x2="506.989" y2="-203.334" gradientUnits="userSpaceOnUse">
<stop stop-color="#00A3E8"/>
<stop offset="1" stop-color="#3230CA"/>
</linearGradient>
<linearGradient id="paint4_linear_42_390" x1="842.492" y1="578.883" x2="33.1757" y2="578.883" gradientUnits="userSpaceOnUse">
<stop stop-color="#4C83EE"/>
<stop offset="1" stop-color="#3159C2"/>
</linearGradient>
<linearGradient id="paint5_linear_42_390" x1="840.58" y1="555.102" x2="34.0402" y2="555.102" gradientUnits="userSpaceOnUse">
<stop stop-color="#344EBC"/>
<stop offset="1" stop-color="#233988"/>
</linearGradient>
<linearGradient id="paint6_linear_42_390" x1="828.327" y1="554.945" x2="46.8335" y2="554.945" gradientUnits="userSpaceOnUse">
<stop stop-color="#344EBC"/>
<stop offset="1" stop-color="#233988"/>
</linearGradient>
<linearGradient id="paint7_linear_42_390" x1="222.7" y1="402.65" x2="124.896" y2="402.65" gradientUnits="userSpaceOnUse">
<stop stop-color="#326AE0"/>
<stop offset="1" stop-color="#2D47B0"/>
</linearGradient>
<linearGradient id="paint8_linear_42_390" x1="741.837" y1="701.957" x2="642.593" y2="701.957" gradientUnits="userSpaceOnUse">
<stop stop-color="#326AE0"/>
<stop offset="1" stop-color="#2D47B0"/>
</linearGradient>
<linearGradient id="paint9_linear_42_390" x1="313.138" y1="367.185" x2="537.988" y2="367.185" gradientUnits="userSpaceOnUse">
<stop stop-color="#3057C6"/>
<stop offset="1" stop-color="#243798"/>
</linearGradient>
<linearGradient id="paint10_linear_42_390" x1="260.428" y1="500.43" x2="537.931" y2="500.43" gradientUnits="userSpaceOnUse">
<stop stop-color="#C6D6F8"/>
<stop offset="1" stop-color="#8CADF0"/>
</linearGradient>
<linearGradient id="paint11_linear_42_390" x1="477.048" y1="447.31" x2="537.988" y2="447.31" gradientUnits="userSpaceOnUse">
<stop stop-color="#326AE0"/>
<stop offset="1" stop-color="#2D47B0"/>
</linearGradient>
<linearGradient id="paint12_linear_42_390" x1="260.428" y1="322.245" x2="321.378" y2="322.245" gradientUnits="userSpaceOnUse">
<stop stop-color="#326AE0"/>
<stop offset="1" stop-color="#2D47B0"/>
</linearGradient>
<linearGradient id="paint13_linear_42_390" x1="260.428" y1="397.61" x2="485.278" y2="397.61" gradientUnits="userSpaceOnUse">
<stop stop-color="#4C83EE"/>
<stop offset="1" stop-color="#3159C2"/>
</linearGradient>
<linearGradient id="paint14_linear_42_390" x1="370.316" y1="255.352" x2="380.622" y2="249.402" gradientUnits="userSpaceOnUse">
<stop stop-color="#E6F1FF"/>
<stop offset="1" stop-color="#C6D6F8"/>
</linearGradient>
<linearGradient id="paint15_linear_42_390" x1="371.364" y1="254.747" x2="379.574" y2="250.007" gradientUnits="userSpaceOnUse">
<stop stop-color="#4C83EE"/>
<stop offset="1" stop-color="#3159C2"/>
</linearGradient>
<linearGradient id="paint16_linear_42_390" x1="439.024" y1="292.847" x2="449.33" y2="286.897" gradientUnits="userSpaceOnUse">
<stop stop-color="#E6F1FF"/>
<stop offset="1" stop-color="#C6D6F8"/>
</linearGradient>
<linearGradient id="paint17_linear_42_390" x1="440.072" y1="292.242" x2="448.282" y2="287.502" gradientUnits="userSpaceOnUse">
<stop stop-color="#4C83EE"/>
<stop offset="1" stop-color="#3159C2"/>
</linearGradient>
<linearGradient id="paint18_linear_42_390" x1="332.697" y1="290.75" x2="343" y2="284.801" gradientUnits="userSpaceOnUse">
<stop stop-color="white"/>
<stop offset="1" stop-color="#E6F1FF"/>
</linearGradient>
<linearGradient id="paint19_linear_42_390" x1="333.745" y1="290.144" x2="341.954" y2="285.404" gradientUnits="userSpaceOnUse">
<stop stop-color="#4C83EE"/>
<stop offset="1" stop-color="#3159C2"/>
</linearGradient>
<linearGradient id="paint20_linear_42_390" x1="409.127" y1="336.227" x2="419.43" y2="330.278" gradientUnits="userSpaceOnUse">
<stop stop-color="white"/>
<stop offset="1" stop-color="#E6F1FF"/>
</linearGradient>
<linearGradient id="paint21_linear_42_390" x1="410.174" y1="335.622" x2="418.384" y2="330.882" gradientUnits="userSpaceOnUse">
<stop stop-color="#4C83EE"/>
<stop offset="1" stop-color="#3159C2"/>
</linearGradient>
<linearGradient id="paint22_linear_42_390" x1="333.808" y1="351.64" x2="417.198" y2="351.64" gradientUnits="userSpaceOnUse">
<stop stop-color="#326AE0"/>
<stop offset="1" stop-color="#2D47B0"/>
</linearGradient>
<linearGradient id="paint23_linear_42_390" x1="477.048" y1="449.415" x2="506.548" y2="449.415" gradientUnits="userSpaceOnUse">
<stop stop-color="#4C83EE"/>
<stop offset="1" stop-color="#3159C2"/>
</linearGradient>
<linearGradient id="paint24_linear_42_390" x1="160.712" y1="508.094" x2="160.752" y2="508.094" gradientUnits="userSpaceOnUse">
<stop stop-color="#4C83EE"/>
<stop offset="1" stop-color="#3159C2"/>
</linearGradient>
<linearGradient id="paint25_linear_42_390" x1="160.722" y1="446.087" x2="309.492" y2="446.087" gradientUnits="userSpaceOnUse">
<stop stop-color="#4C83EE"/>
<stop offset="1" stop-color="#3159C2"/>
</linearGradient>
<linearGradient id="paint26_linear_42_390" x1="249.742" y1="462.634" x2="309.39" y2="462.634" gradientUnits="userSpaceOnUse">
<stop stop-color="white"/>
<stop offset="1" stop-color="#E6F1FF"/>
</linearGradient>
<linearGradient id="paint27_linear_42_390" x1="172.152" y1="372.592" x2="237.034" y2="372.592" gradientUnits="userSpaceOnUse">
<stop stop-color="white"/>
<stop offset="1" stop-color="#E6F1FF"/>
</linearGradient>
<linearGradient id="paint28_linear_42_390" x1="177.662" y1="331.441" x2="293.352" y2="331.441" gradientUnits="userSpaceOnUse">
<stop stop-color="#326AE0"/>
<stop offset="1" stop-color="#2D47B0"/>
</linearGradient>
<linearGradient id="paint29_linear_42_390" x1="177.657" y1="300.399" x2="293.347" y2="300.399" gradientUnits="userSpaceOnUse">
<stop stop-color="#0DB6F5"/>
<stop offset="1" stop-color="#2F62D4"/>
</linearGradient>
<linearGradient id="paint30_linear_42_390" x1="379.521" y1="623.213" x2="753.316" y2="623.213" gradientUnits="userSpaceOnUse">
<stop stop-color="#4C83EE"/>
<stop offset="1" stop-color="#3159C2"/>
</linearGradient>
<radialGradient id="paint31_radial_42_390" cx="0" cy="0" r="1" gradientUnits="userSpaceOnUse" gradientTransform="translate(624.864 549.589) scale(30.7561 30.7561)">
<stop stop-color="#C6D6F2"/>
<stop offset="0.9553" stop-color="#8CADF3" stop-opacity="0"/>
</radialGradient>
<linearGradient id="paint32_linear_42_390" x1="613.166" y1="554.528" x2="641.123" y2="554.528" gradientUnits="userSpaceOnUse">
<stop stop-color="#4C83EE"/>
<stop offset="1" stop-color="#3159C2"/>
</linearGradient>
<linearGradient id="paint33_linear_42_390" x1="600.272" y1="555.975" x2="633.935" y2="555.975" gradientUnits="userSpaceOnUse">
<stop stop-color="#326AE0"/>
<stop offset="1" stop-color="#2D47B0"/>
</linearGradient>
<radialGradient id="paint34_radial_42_390" cx="0" cy="0" r="1" gradientUnits="userSpaceOnUse" gradientTransform="translate(625.617 548.083) scale(30.7561 30.7561)">
<stop stop-color="white" stop-opacity="0.5"/>
<stop offset="0.3104" stop-color="#FCFDFE" stop-opacity="0.6552"/>
<stop offset="0.5497" stop-color="#F2F6FC" stop-opacity="0.7749"/>
<stop offset="0.7653" stop-color="#E2EAF8" stop-opacity="0.8827"/>
<stop offset="0.9659" stop-color="#CBD9F3" stop-opacity="0.9829"/>
<stop offset="1" stop-color="#C6D6F2"/>
</radialGradient>
<radialGradient id="paint35_radial_42_390" cx="0" cy="0" r="1" gradientUnits="userSpaceOnUse" gradientTransform="translate(680.458 581.673) scale(30.7561 30.7561)">
<stop stop-color="#C6D6F2"/>
<stop offset="0.9553" stop-color="#8CADF3" stop-opacity="0"/>
</radialGradient>
<linearGradient id="paint36_linear_42_390" x1="668.766" y1="586.608" x2="696.723" y2="586.608" gradientUnits="userSpaceOnUse">
<stop stop-color="#4C83EE"/>
<stop offset="1" stop-color="#3159C2"/>
</linearGradient>
<linearGradient id="paint37_linear_42_390" x1="655.862" y1="588.055" x2="689.525" y2="588.055" gradientUnits="userSpaceOnUse">
<stop stop-color="#326AE0"/>
<stop offset="1" stop-color="#2D47B0"/>
</linearGradient>
<radialGradient id="paint38_radial_42_390" cx="0" cy="0" r="1" gradientUnits="userSpaceOnUse" gradientTransform="translate(681.211 580.166) scale(30.7561 30.7561)">
<stop stop-color="white" stop-opacity="0.5"/>
<stop offset="0.3104" stop-color="#FCFDFE" stop-opacity="0.6552"/>
<stop offset="0.5497" stop-color="#F2F6FC" stop-opacity="0.7749"/>
<stop offset="0.7653" stop-color="#E2EAF8" stop-opacity="0.8827"/>
<stop offset="0.9659" stop-color="#CBD9F3" stop-opacity="0.9829"/>
<stop offset="1" stop-color="#C6D6F2"/>
</radialGradient>
<radialGradient id="paint39_radial_42_390" cx="0" cy="0" r="1" gradientUnits="userSpaceOnUse" gradientTransform="translate(581.878 574.274) scale(30.7561 30.7561)">
<stop stop-color="#C6D6F2"/>
<stop offset="0.9553" stop-color="#8CADF3" stop-opacity="0"/>
</radialGradient>
<linearGradient id="paint40_linear_42_390" x1="570.186" y1="579.208" x2="598.143" y2="579.208" gradientUnits="userSpaceOnUse">
<stop stop-color="#4C83EE"/>
<stop offset="1" stop-color="#3159C2"/>
</linearGradient>
<linearGradient id="paint41_linear_42_390" x1="557.282" y1="580.654" x2="590.945" y2="580.654" gradientUnits="userSpaceOnUse">
<stop stop-color="#326AE0"/>
<stop offset="1" stop-color="#2D47B0"/>
</linearGradient>
<radialGradient id="paint42_radial_42_390" cx="0" cy="0" r="1" gradientUnits="userSpaceOnUse" gradientTransform="translate(582.631 572.766) scale(30.7561 30.7561)">
<stop stop-color="white" stop-opacity="0.5"/>
<stop offset="0.3104" stop-color="#FCFDFE" stop-opacity="0.6552"/>
<stop offset="0.5497" stop-color="#F2F6FC" stop-opacity="0.7749"/>
<stop offset="0.7653" stop-color="#E2EAF8" stop-opacity="0.8827"/>
<stop offset="0.9659" stop-color="#CBD9F3" stop-opacity="0.9829"/>
<stop offset="1" stop-color="#C6D6F2"/>
</radialGradient>
<radialGradient id="paint43_radial_42_390" cx="0" cy="0" r="1" gradientUnits="userSpaceOnUse" gradientTransform="translate(637.472 606.357) scale(30.7561 30.7561)">
<stop stop-color="#C6D6F2"/>
<stop offset="0.9553" stop-color="#8CADF3" stop-opacity="0"/>
</radialGradient>
<linearGradient id="paint44_linear_42_390" x1="625.775" y1="611.298" x2="653.732" y2="611.298" gradientUnits="userSpaceOnUse">
<stop stop-color="#4C83EE"/>
<stop offset="1" stop-color="#3159C2"/>
</linearGradient>
<linearGradient id="paint45_linear_42_390" x1="612.882" y1="612.744" x2="646.545" y2="612.744" gradientUnits="userSpaceOnUse">
<stop stop-color="#326AE0"/>
<stop offset="1" stop-color="#2D47B0"/>
</linearGradient>
<radialGradient id="paint46_radial_42_390" cx="0" cy="0" r="1" gradientUnits="userSpaceOnUse" gradientTransform="translate(638.225 604.85) scale(30.7561 30.7561)">
<stop stop-color="white" stop-opacity="0.5"/>
<stop offset="0.3104" stop-color="#FCFDFE" stop-opacity="0.6552"/>
<stop offset="0.5497" stop-color="#F2F6FC" stop-opacity="0.7749"/>
<stop offset="0.7653" stop-color="#E2EAF8" stop-opacity="0.8827"/>
<stop offset="0.9659" stop-color="#CBD9F3" stop-opacity="0.9829"/>
<stop offset="1" stop-color="#C6D6F2"/>
</radialGradient>
<radialGradient id="paint47_radial_42_390" cx="0" cy="0" r="1" gradientUnits="userSpaceOnUse" gradientTransform="translate(539.33 599.586) scale(30.7561 30.7561)">
<stop stop-color="#C6D6F2"/>
<stop offset="0.9553" stop-color="#8CADF3" stop-opacity="0"/>
</radialGradient>
<linearGradient id="paint48_linear_42_390" x1="527.636" y1="604.528" x2="555.593" y2="604.528" gradientUnits="userSpaceOnUse">
<stop stop-color="#4C83EE"/>
<stop offset="1" stop-color="#3159C2"/>
</linearGradient>
<linearGradient id="paint49_linear_42_390" x1="514.742" y1="605.975" x2="548.405" y2="605.975" gradientUnits="userSpaceOnUse">
<stop stop-color="#326AE0"/>
<stop offset="1" stop-color="#2D47B0"/>
</linearGradient>
<radialGradient id="paint50_radial_42_390" cx="0" cy="0" r="1" gradientUnits="userSpaceOnUse" gradientTransform="translate(540.084 598.079) scale(30.7561 30.7561)">
<stop stop-color="white" stop-opacity="0.5"/>
<stop offset="0.3104" stop-color="#FCFDFE" stop-opacity="0.6552"/>
<stop offset="0.5497" stop-color="#F2F6FC" stop-opacity="0.7749"/>
<stop offset="0.7653" stop-color="#E2EAF8" stop-opacity="0.8827"/>
<stop offset="0.9659" stop-color="#CBD9F3" stop-opacity="0.9829"/>
<stop offset="1" stop-color="#C6D6F2"/>
</radialGradient>
<radialGradient id="paint51_radial_42_390" cx="0" cy="0" r="1" gradientUnits="userSpaceOnUse" gradientTransform="translate(594.925 631.669) scale(30.7561 30.7561)">
<stop stop-color="#C6D6F2"/>
<stop offset="0.9553" stop-color="#8CADF3" stop-opacity="0"/>
</radialGradient>
<linearGradient id="paint52_linear_42_390" x1="583.231" y1="636.608" x2="611.193" y2="636.608" gradientUnits="userSpaceOnUse">
<stop stop-color="#4C83EE"/>
<stop offset="1" stop-color="#3159C2"/>
</linearGradient>
<linearGradient id="paint53_linear_42_390" x1="570.332" y1="638.055" x2="603.995" y2="638.055" gradientUnits="userSpaceOnUse">
<stop stop-color="#326AE0"/>
<stop offset="1" stop-color="#2D47B0"/>
</linearGradient>
<radialGradient id="paint54_radial_42_390" cx="0" cy="0" r="1" gradientUnits="userSpaceOnUse" gradientTransform="translate(595.678 630.162) scale(30.7561 30.7561)">
<stop stop-color="white" stop-opacity="0.5"/>
<stop offset="0.3104" stop-color="#FCFDFE" stop-opacity="0.6552"/>
<stop offset="0.5497" stop-color="#F2F6FC" stop-opacity="0.7749"/>
<stop offset="0.7653" stop-color="#E2EAF8" stop-opacity="0.8827"/>
<stop offset="0.9659" stop-color="#CBD9F3" stop-opacity="0.9829"/>
<stop offset="1" stop-color="#C6D6F2"/>
</radialGradient>
<radialGradient id="paint55_radial_42_390" cx="0" cy="0" r="1" gradientUnits="userSpaceOnUse" gradientTransform="translate(496.344 623.87) scale(30.7561 30.7561)">
<stop stop-color="#C6D6F2"/>
<stop offset="0.9553" stop-color="#8CADF3" stop-opacity="0"/>
</radialGradient>
<linearGradient id="paint56_linear_42_390" x1="484.651" y1="628.808" x2="512.612" y2="628.808" gradientUnits="userSpaceOnUse">
<stop stop-color="#4C83EE"/>
<stop offset="1" stop-color="#3159C2"/>
</linearGradient>
<linearGradient id="paint57_linear_42_390" x1="471.752" y1="630.255" x2="505.415" y2="630.255" gradientUnits="userSpaceOnUse">
<stop stop-color="#326AE0"/>
<stop offset="1" stop-color="#2D47B0"/>
</linearGradient>
<radialGradient id="paint58_radial_42_390" cx="0" cy="0" r="1" gradientUnits="userSpaceOnUse" gradientTransform="translate(497.098 622.363) scale(30.7561 30.7561)">
<stop stop-color="white" stop-opacity="0.5"/>
<stop offset="0.3104" stop-color="#FCFDFE" stop-opacity="0.6552"/>
<stop offset="0.5497" stop-color="#F2F6FC" stop-opacity="0.7749"/>
<stop offset="0.7653" stop-color="#E2EAF8" stop-opacity="0.8827"/>
<stop offset="0.9659" stop-color="#CBD9F3" stop-opacity="0.9829"/>
<stop offset="1" stop-color="#C6D6F2"/>
</radialGradient>
<radialGradient id="paint59_radial_42_390" cx="0" cy="0" r="1" gradientUnits="userSpaceOnUse" gradientTransform="translate(551.938 655.953) scale(30.7561 30.7561)">
<stop stop-color="#C6D6F2"/>
<stop offset="0.9553" stop-color="#8CADF3" stop-opacity="0"/>
</radialGradient>
<linearGradient id="paint60_linear_42_390" x1="540.244" y1="660.888" x2="568.201" y2="660.888" gradientUnits="userSpaceOnUse">
<stop stop-color="#4C83EE"/>
<stop offset="1" stop-color="#3159C2"/>
</linearGradient>
<linearGradient id="paint61_linear_42_390" x1="527.342" y1="662.334" x2="561.004" y2="662.334" gradientUnits="userSpaceOnUse">
<stop stop-color="#326AE0"/>
<stop offset="1" stop-color="#2D47B0"/>
</linearGradient>
<radialGradient id="paint62_radial_42_390" cx="0" cy="0" r="1" gradientUnits="userSpaceOnUse" gradientTransform="translate(552.692 654.446) scale(30.7561 30.7561)">
<stop stop-color="white" stop-opacity="0.5"/>
<stop offset="0.3104" stop-color="#FCFDFE" stop-opacity="0.6552"/>
<stop offset="0.5497" stop-color="#F2F6FC" stop-opacity="0.7749"/>
<stop offset="0.7653" stop-color="#E2EAF8" stop-opacity="0.8827"/>
<stop offset="0.9659" stop-color="#CBD9F3" stop-opacity="0.9829"/>
<stop offset="1" stop-color="#C6D6F2"/>
</radialGradient>
<radialGradient id="paint63_radial_42_390" cx="0" cy="0" r="1" gradientUnits="userSpaceOnUse" gradientTransform="translate(453.578 648.968) scale(30.7561 30.7561)">
<stop stop-color="#C6D6F2"/>
<stop offset="0.9553" stop-color="#8CADF3" stop-opacity="0"/>
</radialGradient>
<linearGradient id="paint64_linear_42_390" x1="441.886" y1="653.908" x2="469.843" y2="653.908" gradientUnits="userSpaceOnUse">
<stop stop-color="#4C83EE"/>
<stop offset="1" stop-color="#3159C2"/>
</linearGradient>
<linearGradient id="paint65_linear_42_390" x1="428.982" y1="655.355" x2="462.645" y2="655.355" gradientUnits="userSpaceOnUse">
<stop stop-color="#326AE0"/>
<stop offset="1" stop-color="#2D47B0"/>
</linearGradient>
<radialGradient id="paint66_radial_42_390" cx="0" cy="0" r="1" gradientUnits="userSpaceOnUse" gradientTransform="translate(454.332 647.461) scale(30.7561 30.7561)">
<stop stop-color="white" stop-opacity="0.5"/>
<stop offset="0.3104" stop-color="#FCFDFE" stop-opacity="0.6552"/>
<stop offset="0.5497" stop-color="#F2F6FC" stop-opacity="0.7749"/>
<stop offset="0.7653" stop-color="#E2EAF8" stop-opacity="0.8827"/>
<stop offset="0.9659" stop-color="#CBD9F3" stop-opacity="0.9829"/>
<stop offset="1" stop-color="#C6D6F2"/>
</radialGradient>
<radialGradient id="paint67_radial_42_390" cx="0" cy="0" r="1" gradientUnits="userSpaceOnUse" gradientTransform="translate(509.172 681.052) scale(30.7561 30.7561)">
<stop stop-color="#C6D6F2"/>
<stop offset="0.9553" stop-color="#8CADF3" stop-opacity="0"/>
</radialGradient>
<linearGradient id="paint68_linear_42_390" x1="497.475" y1="685.988" x2="525.432" y2="685.988" gradientUnits="userSpaceOnUse">
<stop stop-color="#4C83EE"/>
<stop offset="1" stop-color="#3159C2"/>
</linearGradient>
<linearGradient id="paint69_linear_42_390" x1="484.581" y1="687.435" x2="518.244" y2="687.435" gradientUnits="userSpaceOnUse">
<stop stop-color="#326AE0"/>
<stop offset="1" stop-color="#2D47B0"/>
</linearGradient>
<radialGradient id="paint70_radial_42_390" cx="0" cy="0" r="1" gradientUnits="userSpaceOnUse" gradientTransform="translate(509.926 679.545) scale(30.7561 30.7561)">
<stop stop-color="white" stop-opacity="0.5"/>
<stop offset="0.3104" stop-color="#FCFDFE" stop-opacity="0.6552"/>
<stop offset="0.5497" stop-color="#F2F6FC" stop-opacity="0.7749"/>
<stop offset="0.7653" stop-color="#E2EAF8" stop-opacity="0.8827"/>
<stop offset="0.9659" stop-color="#CBD9F3" stop-opacity="0.9829"/>
<stop offset="1" stop-color="#C6D6F2"/>
</radialGradient>
<linearGradient id="paint71_linear_42_390" x1="443.577" y1="611.75" x2="506.441" y2="611.75" gradientUnits="userSpaceOnUse">
<stop stop-color="white"/>
<stop offset="1" stop-color="#E6F1FF"/>
</linearGradient>
<linearGradient id="paint72_linear_42_390" x1="406.729" y1="628.648" x2="474.973" y2="628.648" gradientUnits="userSpaceOnUse">
<stop stop-color="#4C83EE"/>
<stop offset="1" stop-color="#3159C2"/>
</linearGradient>
<linearGradient id="paint73_linear_42_390" x1="415.537" y1="605.386" x2="480.704" y2="605.386" gradientUnits="userSpaceOnUse">
<stop stop-color="white"/>
<stop offset="1" stop-color="#E6F1FF"/>
</linearGradient>
<linearGradient id="paint74_linear_42_390" x1="424.277" y1="632.174" x2="506.435" y2="632.174" gradientUnits="userSpaceOnUse">
<stop stop-color="#344EBC"/>
<stop offset="1" stop-color="#233988"/>
</linearGradient>
<linearGradient id="paint75_linear_42_390" x1="376.647" y1="620.079" x2="434.837" y2="620.079" gradientUnits="userSpaceOnUse">
<stop stop-color="white"/>
<stop offset="1" stop-color="#E6F1FF"/>
</linearGradient>
<linearGradient id="paint76_linear_42_390" x1="367.254" y1="655.246" x2="426.021" y2="655.246" gradientUnits="userSpaceOnUse">
<stop stop-color="#4C83EE"/>
<stop offset="1" stop-color="#3159C2"/>
</linearGradient>
<linearGradient id="paint77_linear_42_390" x1="371.926" y1="634.977" x2="396.703" y2="634.977" gradientUnits="userSpaceOnUse">
<stop stop-color="white"/>
<stop offset="1" stop-color="#E6F1FF"/>
</linearGradient>
<linearGradient id="paint78_linear_42_390" x1="403.587" y1="642.577" x2="434.851" y2="642.577" gradientUnits="userSpaceOnUse">
<stop stop-color="#344EBC"/>
<stop offset="1" stop-color="#233988"/>
</linearGradient>
<linearGradient id="paint79_linear_42_390" x1="314.171" y1="578.985" x2="406.393" y2="578.985" gradientUnits="userSpaceOnUse">
<stop stop-color="#326AE0"/>
<stop offset="1" stop-color="#2D47B0"/>
</linearGradient>
<linearGradient id="paint80_linear_42_390" x1="314.167" y1="567.06" x2="406.393" y2="567.06" gradientUnits="userSpaceOnUse">
<stop stop-color="#0DB6F5"/>
<stop offset="1" stop-color="#2F62D4"/>
</linearGradient>
<linearGradient id="paint81_linear_42_390" x1="315.825" y1="571.363" x2="404.861" y2="571.363" gradientUnits="userSpaceOnUse">
<stop stop-color="#326AE0"/>
<stop offset="1" stop-color="#2D47B0"/>
</linearGradient>
<linearGradient id="paint82_linear_42_390" x1="328.742" y1="564.074" x2="393.41" y2="564.074" gradientUnits="userSpaceOnUse">
<stop stop-color="#326AE0"/>
<stop offset="1" stop-color="#2D47B0"/>
</linearGradient>
<linearGradient id="paint83_linear_42_390" x1="329.882" y1="563.754" x2="393.41" y2="563.754" gradientUnits="userSpaceOnUse">
<stop stop-color="#0DB6F5"/>
<stop offset="1" stop-color="#2F62D4"/>
</linearGradient>
<linearGradient id="paint84_linear_42_390" x1="270.204" y1="571.633" x2="346.271" y2="571.633" gradientUnits="userSpaceOnUse">
<stop stop-color="#5E6B86"/>
<stop offset="1" stop-color="#3A50A7"/>
</linearGradient>
<linearGradient id="paint85_linear_42_390" x1="269.808" y1="566.448" x2="336.716" y2="566.448" gradientUnits="userSpaceOnUse">
<stop stop-color="#5E6B86"/>
<stop offset="1" stop-color="#3A50A7"/>
</linearGradient>
<linearGradient id="paint86_linear_42_390" x1="266.984" y1="562.687" x2="334.379" y2="562.687" gradientUnits="userSpaceOnUse">
<stop stop-color="#5E6B86"/>
<stop offset="1" stop-color="#3A50A7"/>
</linearGradient>
<linearGradient id="paint87_linear_42_390" x1="403.57" y1="662.138" x2="171.15" y2="662.138" gradientUnits="userSpaceOnUse">
<stop stop-color="#0DB6F5"/>
<stop offset="1" stop-color="#2F62D4"/>
</linearGradient>
<linearGradient id="paint88_linear_42_390" x1="403.591" y1="660.711" x2="175.421" y2="660.711" gradientUnits="userSpaceOnUse">
<stop stop-color="#344EBC"/>
<stop offset="1" stop-color="#233988"/>
</linearGradient>
<linearGradient id="paint89_linear_42_390" x1="191.589" y1="594.534" x2="175.421" y2="594.534" gradientUnits="userSpaceOnUse">
<stop stop-color="#3057C6"/>
<stop offset="1" stop-color="#243798"/>
</linearGradient>
<linearGradient id="paint90_linear_42_390" x1="66.6455" y1="702.733" x2="394.638" y2="702.733" gradientUnits="userSpaceOnUse">
<stop stop-color="#3057C6"/>
<stop offset="1" stop-color="#243798"/>
</linearGradient>
<linearGradient id="paint91_linear_42_390" x1="66.626" y1="698.887" x2="394.605" y2="698.887" gradientUnits="userSpaceOnUse">
<stop stop-color="#0DB6F5"/>
<stop offset="1" stop-color="#2F62D4"/>
</linearGradient>
<linearGradient id="paint92_linear_42_390" x1="66.6421" y1="698.889" x2="394.61" y2="698.889" gradientUnits="userSpaceOnUse">
<stop stop-color="white" stop-opacity="0.5"/>
<stop offset="0.39" stop-color="white" stop-opacity="0.33"/>
<stop offset="1" stop-color="white" stop-opacity="0"/>
</linearGradient>
<linearGradient id="paint93_linear_42_390" x1="93.5889" y1="711.459" x2="327.517" y2="711.459" gradientUnits="userSpaceOnUse">
<stop stop-color="#3057C6"/>
<stop offset="1" stop-color="#243798"/>
</linearGradient>
<clipPath id="clip0_42_390">
<rect width="1920" height="1080" fill="white"/>
</clipPath>
</defs>
</svg>
