<svg width="17" height="18" viewBox="0 0 17 18" fill="none" xmlns="http://www.w3.org/2000/svg">
<g clip-path="url(#clip0_68_1875)">
<path d="M3.54163 12.7018H2.83329C2.45757 12.7018 2.09723 12.5526 1.83156 12.2869C1.56588 12.0212 1.41663 11.6609 1.41663 11.2852V4.20182C1.41663 3.8261 1.56588 3.46576 1.83156 3.20009C2.09723 2.93441 2.45757 2.78516 2.83329 2.78516H14.1666C14.5423 2.78516 14.9027 2.93441 15.1684 3.20009C15.434 3.46576 15.5833 3.8261 15.5833 4.20182V11.2852C15.5833 11.6609 15.434 12.0212 15.1684 12.2869C14.9027 12.5526 14.5423 12.7018 14.1666 12.7018H13.4583" stroke="#444444" stroke-width="1.41667" stroke-linecap="round" stroke-linejoin="round"/>
<path d="M8.50004 11.2852L12.0417 15.5352H4.95837L8.50004 11.2852Z" stroke="#444444" stroke-width="1.41667" stroke-linecap="round" stroke-linejoin="round"/>
</g>
<defs>
<clipPath id="clip0_68_1875">
<rect width="17" height="17" fill="white" transform="translate(0 0.660156)"/>
</clipPath>
</defs>
</svg>
