<svg width="18" height="18" viewBox="0 0 18 18" fill="none" xmlns="http://www.w3.org/2000/svg">
<g clip-path="url(#clip0_20_2533)">
<path d="M14.9921 15.4888V14.0721C14.9921 13.3207 14.6936 12.6 14.1623 12.0686C13.6309 11.5373 12.9103 11.2388 12.1588 11.2388H6.49215C5.7407 11.2388 5.02003 11.5373 4.48868 12.0686C3.95732 12.6 3.65881 13.3207 3.65881 14.0721V15.4888" stroke="#444444" stroke-width="1.41667" stroke-linecap="round" stroke-linejoin="round"/>
<path d="M9.3254 8.40544C10.8902 8.40544 12.1587 7.13691 12.1587 5.5721C12.1587 4.0073 10.8902 2.73877 9.3254 2.73877C7.76059 2.73877 6.49207 4.0073 6.49207 5.5721C6.49207 7.13691 7.76059 8.40544 9.3254 8.40544Z" stroke="#444444" stroke-width="1.41667" stroke-linecap="round" stroke-linejoin="round"/>
</g>
<defs>
<clipPath id="clip0_20_2533">
<rect width="17" height="17" fill="white" transform="translate(0.825439 0.61377)"/>
</clipPath>
</defs>
</svg>
