<svg width="17" height="18" viewBox="0 0 17 18" fill="none" xmlns="http://www.w3.org/2000/svg">
<g clip-path="url(#clip0_68_1915)">
<path d="M8.5 1.36865V16.952" stroke="#444444" stroke-width="1.41667" stroke-linecap="round" stroke-linejoin="round"/>
<path d="M12.0417 4.20166H6.72917C6.07165 4.20166 5.44107 4.46286 4.97613 4.92779C4.5112 5.39273 4.25 6.02331 4.25 6.68083C4.25 7.33834 4.5112 7.96893 4.97613 8.43386C5.44107 8.8988 6.07165 9.15999 6.72917 9.15999H10.2708C10.9283 9.15999 11.5589 9.42119 12.0239 9.88612C12.4888 10.3511 12.75 10.9816 12.75 11.6392C12.75 12.2967 12.4888 12.9273 12.0239 13.3922C11.5589 13.8571 10.9283 14.1183 10.2708 14.1183H4.25" stroke="#444444" stroke-width="1.41667" stroke-linecap="round" stroke-linejoin="round"/>
</g>
<defs>
<clipPath id="clip0_68_1915">
<rect width="17" height="17" fill="white" transform="translate(0 0.660156)"/>
</clipPath>
</defs>
</svg>
