<svg width="19" height="19" viewBox="0 0 19 19" fill="none" xmlns="http://www.w3.org/2000/svg">
<path d="M6.94495 2.41406C6.42932 2.41406 5.94299 2.51367 5.48596 2.71289C5.02893 2.91211 4.63049 3.18164 4.29065 3.52148C3.95081 3.86133 3.68127 4.25977 3.48206 4.7168C3.29456 5.16211 3.20081 5.64844 3.20081 6.17578C3.20081 6.69141 3.29456 7.17773 3.48206 7.63477C3.68127 8.0918 3.95081 8.4873 4.29065 8.82129C4.63049 9.15527 5.02893 9.42188 5.48596 9.62109C5.94299 9.82031 6.42932 9.91992 6.94495 9.91992C7.46057 9.91992 7.9469 9.82031 8.40393 9.62109C8.86096 9.42188 9.2594 9.15527 9.59924 8.82129C9.93909 8.4873 10.2086 8.0918 10.4078 7.63477C10.5953 7.17773 10.6891 6.69141 10.6891 6.17578C10.6891 5.64844 10.5953 5.16211 10.4078 4.7168C10.2086 4.25977 9.93909 3.86133 9.59924 3.52148C9.2594 3.18164 8.86096 2.91211 8.40393 2.71289C7.9469 2.51367 7.46057 2.41406 6.94495 2.41406ZM6.94495 8.42578C6.32385 8.42578 5.79358 8.20605 5.35413 7.7666C4.91467 7.32715 4.69495 6.79687 4.69495 6.17578C4.69495 5.55469 4.91467 5.02441 5.35413 4.58496C5.79358 4.14551 6.32385 3.92578 6.94495 3.92578C7.56604 3.92578 8.09631 4.14551 8.53577 4.58496C8.97522 5.02441 9.19495 5.55469 9.19495 6.17578C9.19495 6.79687 8.97522 7.32715 8.53577 7.7666C8.09631 8.20605 7.56604 8.42578 6.94495 8.42578ZM13.6949 16.6699V15.9141C13.6949 15.1875 13.5602 14.5078 13.2906 13.875C13.0094 13.2422 12.6315 12.6885 12.1569 12.2139C11.6823 11.7393 11.1285 11.3613 10.4957 11.0801C9.8512 10.8105 9.16565 10.6758 8.43909 10.6758H5.45081C4.72424 10.6758 4.0387 10.8105 3.39417 11.0801C2.76135 11.3613 2.20764 11.7393 1.73303 12.2139C1.25842 12.6885 0.880493 13.2422 0.599243 13.875C0.329712 14.5078 0.194946 15.1875 0.194946 15.9141V16.6699H1.68909V15.9141C1.68909 15.3984 1.7887 14.9121 1.98792 14.4551C2.18713 13.998 2.45667 13.6025 2.79651 13.2686C3.13635 12.9346 3.53479 12.668 3.99182 12.4688C4.43713 12.2695 4.92346 12.1699 5.45081 12.1699H8.43909C8.96643 12.1699 9.45276 12.2695 9.89807 12.4688C10.3551 12.668 10.7535 12.9346 11.0934 13.2686C11.4332 13.6025 11.7028 13.998 11.902 14.4551C12.1012 14.9121 12.2008 15.3984 12.2008 15.9141V16.6699H13.6949Z" fill="white"/>
</svg>
