<svg width="19" height="19" viewBox="0 0 19 19" fill="none" xmlns="http://www.w3.org/2000/svg">
<path d="M6.94501 2.41406C6.42938 2.41406 5.94305 2.51367 5.48602 2.71289C5.02899 2.91211 4.63055 3.18164 4.29071 3.52148C3.95087 3.86133 3.68134 4.25977 3.48212 4.7168C3.29462 5.16211 3.20087 5.64844 3.20087 6.17578C3.20087 6.69141 3.29462 7.17773 3.48212 7.63477C3.68134 8.0918 3.95087 8.4873 4.29071 8.82129C4.63055 9.15527 5.02899 9.42188 5.48602 9.62109C5.94305 9.82031 6.42938 9.91992 6.94501 9.91992C7.46063 9.91992 7.94696 9.82031 8.40399 9.62109C8.86102 9.42188 9.25946 9.15527 9.5993 8.82129C9.93915 8.4873 10.2087 8.0918 10.4079 7.63477C10.5954 7.17773 10.6891 6.69141 10.6891 6.17578C10.6891 5.64844 10.5954 5.16211 10.4079 4.7168C10.2087 4.25977 9.93915 3.86133 9.5993 3.52148C9.25946 3.18164 8.86102 2.91211 8.40399 2.71289C7.94696 2.51367 7.46063 2.41406 6.94501 2.41406ZM6.94501 8.42578C6.32391 8.42578 5.79364 8.20605 5.35419 7.7666C4.91473 7.32715 4.69501 6.79687 4.69501 6.17578C4.69501 5.55469 4.91473 5.02441 5.35419 4.58496C5.79364 4.14551 6.32391 3.92578 6.94501 3.92578C7.5661 3.92578 8.09637 4.14551 8.53583 4.58496C8.97528 5.02441 9.19501 5.55469 9.19501 6.17578C9.19501 6.79687 8.97528 7.32715 8.53583 7.7666C8.09637 8.20605 7.5661 8.42578 6.94501 8.42578ZM13.695 16.6699V15.9141C13.695 15.1875 13.5602 14.5078 13.2907 13.875C13.0095 13.2422 12.6315 12.6885 12.1569 12.2139C11.6823 11.7393 11.1286 11.3613 10.4958 11.0801C9.85126 10.8105 9.16571 10.6758 8.43915 10.6758H5.45087C4.7243 10.6758 4.03876 10.8105 3.39423 11.0801C2.76141 11.3613 2.2077 11.7393 1.73309 12.2139C1.25848 12.6885 0.880554 13.2422 0.599304 13.875C0.329773 14.5078 0.195007 15.1875 0.195007 15.9141V16.6699H1.68915V15.9141C1.68915 15.3984 1.78876 14.9121 1.98798 14.4551C2.18719 13.998 2.45673 13.6025 2.79657 13.2686C3.13641 12.9346 3.53485 12.668 3.99188 12.4688C4.43719 12.2695 4.92352 12.1699 5.45087 12.1699H8.43915C8.96649 12.1699 9.45282 12.2695 9.89813 12.4688C10.3552 12.668 10.7536 12.9346 11.0934 13.2686C11.4333 13.6025 11.7028 13.998 11.902 14.4551C12.1013 14.9121 12.2009 15.3984 12.2009 15.9141V16.6699H13.695Z" fill="white"/>
</svg>
