<svg width="44" height="40" viewBox="0 0 44 40" fill="none" xmlns="http://www.w3.org/2000/svg">
<mask id="path-1-outside-1_40_1182" maskUnits="userSpaceOnUse" x="0" y="0.47998" width="44" height="39" fill="black">
<rect fill="white" y="0.47998" width="44" height="39"/>
<path d="M0 1.47998H37C40.3137 1.47998 43 4.16627 43 7.47998V32.42C43 35.7337 40.3137 38.42 37 38.42H0V1.47998Z"/>
</mask>
<path d="M0 1.47998H37C40.3137 1.47998 43 4.16627 43 7.47998V32.42C43 35.7337 40.3137 38.42 37 38.42H0V1.47998Z" fill="white"/>
<path d="M20.2549 24.3301C20.5479 24.3301 20.8311 24.313 21.1045 24.2788C21.3779 24.2446 21.6367 24.2031 21.8809 24.1543L20.7822 23.0557C20.6943 23.0557 20.6064 23.0581 20.5186 23.063C20.4307 23.0679 20.3428 23.0703 20.2549 23.0703C19.415 23.0703 18.7021 22.9434 18.1162 22.6895C17.5205 22.4355 17.0273 22.1353 16.6367 21.7886C16.2461 21.4419 15.9482 21.0928 15.7432 20.7412C15.5283 20.3896 15.3818 20.126 15.3037 19.9502C15.4307 19.6768 15.5723 19.4204 15.7285 19.1812C15.8848 18.9419 16.0557 18.7197 16.2412 18.5146L15.377 17.6357C14.8887 18.1631 14.5444 18.644 14.3442 19.0786C14.144 19.5132 14.0439 19.7402 14.0439 19.7598C14.0342 19.7891 14.0244 19.8184 14.0146 19.8477C14.0049 19.877 14 19.9111 14 19.9502C14 19.9893 14.0049 20.0259 14.0146 20.0601C14.0244 20.0942 14.0342 20.126 14.0439 20.1553C14.0439 20.165 14.1416 20.3848 14.3369 20.8145C14.542 21.2539 14.8838 21.7324 15.3623 22.25C15.8408 22.7676 16.4756 23.2461 17.2666 23.6855C18.0674 24.1152 19.0635 24.3301 20.2549 24.3301ZM20.2549 15.5703C19.6787 15.5703 19.1538 15.6265 18.6802 15.7388C18.2065 15.8511 17.7744 16 17.3838 16.1855L15.0693 13.8857L14.1904 14.7646L25.4404 26.0146L26.3193 25.1357L24.2539 23.0557C25.0645 22.4502 25.6357 21.8179 25.9678 21.1587C26.2998 20.4995 26.4658 20.165 26.4658 20.1553C26.4854 20.126 26.4976 20.0942 26.5024 20.0601C26.5073 20.0259 26.5098 19.9893 26.5098 19.9502C26.5098 19.9111 26.5073 19.8745 26.5024 19.8403C26.4976 19.8062 26.4854 19.7744 26.4658 19.7451V19.7598C26.4658 19.7402 26.3682 19.5156 26.1729 19.0859C25.9678 18.6465 25.626 18.168 25.1475 17.6504C24.6689 17.1328 24.0342 16.6543 23.2432 16.2148C22.4424 15.7852 21.4463 15.5703 20.2549 15.5703ZM23.3604 22.1768L21.9395 20.7559C21.998 20.6289 22.0444 20.4995 22.0786 20.3677C22.1128 20.2358 22.1299 20.0967 22.1299 19.9502C22.1299 19.4326 21.9468 18.9907 21.5806 18.6245C21.2144 18.2583 20.7725 18.0752 20.2549 18.0752C20.1084 18.0752 19.9692 18.0923 19.8374 18.1265C19.7056 18.1606 19.5811 18.207 19.4639 18.2656L18.3213 17.1377C18.6045 17.04 18.9048 16.9644 19.2222 16.9106C19.5396 16.8569 19.8691 16.8301 20.2109 16.8301C20.2207 16.8301 20.228 16.8301 20.2329 16.8301C20.2378 16.8301 20.2451 16.8301 20.2549 16.8301C21.0947 16.8301 21.8076 16.957 22.3936 17.2109C22.9893 17.4648 23.4824 17.7651 23.873 18.1118C24.2637 18.4585 24.5615 18.8076 24.7666 19.1592C24.9814 19.5107 25.1279 19.7744 25.2061 19.9502C25.1182 20.165 24.9277 20.4946 24.6348 20.939C24.3418 21.3833 23.917 21.7959 23.3604 22.1768Z" fill="#697A8D"/>
<path d="M0 0.47998H37C40.866 0.47998 44 3.61399 44 7.47998H42C42 4.71856 39.7614 2.47998 37 2.47998H0V0.47998ZM44 32.42C44 36.286 40.866 39.42 37 39.42H0V37.42H37C39.7614 37.42 42 35.1814 42 32.42H44ZM0 38.42V1.47998V38.42ZM37 0.47998C40.866 0.47998 44 3.61399 44 7.47998V32.42C44 36.286 40.866 39.42 37 39.42V37.42C39.7614 37.42 42 35.1814 42 32.42V7.47998C42 4.71856 39.7614 2.47998 37 2.47998V0.47998Z" fill="#D9DEE3" mask="url(#path-1-outside-1_40_1182)"/>
</svg>
