<svg width="15" height="15" viewBox="0 0 15 15" fill="none" xmlns="http://www.w3.org/2000/svg">
<path d="M13.3398 0H1.66016C1.20443 0 0.813802 0.16276 0.488281 0.488281C0.16276 0.813802 0 1.20443 0 1.66016V13.3398C0 13.7956 0.16276 14.1862 0.488281 14.5117C0.813802 14.8372 1.20443 15 1.66016 15H13.3398C13.7956 15 14.1862 14.8372 14.5117 14.5117C14.8372 14.1862 15 13.7956 15 13.3398V1.66016C15 1.20443 14.8372 0.813802 14.5117 0.488281C14.1862 0.16276 13.7956 0 13.3398 0ZM13.3398 1.66016V4.16016H1.66016V1.66016H13.3398ZM1.66016 13.3398V5.83984H13.3398V13.3398H1.66016Z" fill="black"/>
</svg>
