<svg width="17" height="17" viewBox="0 0 17 17" fill="none" xmlns="http://www.w3.org/2000/svg">
<path d="M15 0H6.67969C6.21094 0 5.8138 0.16276 5.48828 0.488281C5.16276 0.813802 5 1.21094 5 1.67969V5H1.67969C1.21094 5 0.813802 5.16276 0.488281 5.48828C0.16276 5.8138 0 6.21094 0 6.67969V15C0 15.4688 0.16276 15.8659 0.488281 16.1914C0.813802 16.5169 1.21094 16.6797 1.67969 16.6797H10C10.4688 16.6797 10.8659 16.5169 11.1914 16.1914C11.5169 15.8659 11.6797 15.4688 11.6797 15V11.6797H15C15.4688 11.6797 15.8659 11.5169 16.1914 11.1914C16.5169 10.8659 16.6797 10.4688 16.6797 10V1.67969C16.6797 1.21094 16.5169 0.813802 16.1914 0.488281C15.8659 0.16276 15.4688 0 15 0ZM1.67969 15V6.67969H10V15H1.67969ZM15 10H11.6797V6.67969C11.6797 6.21094 11.5169 5.8138 11.1914 5.48828C10.8659 5.16276 10.4688 5 10 5H6.67969V1.67969H15V10Z" fill="#697A8D"/>
</svg>
