<svg width="17" height="17" viewBox="0 0 17 17" fill="none" xmlns="http://www.w3.org/2000/svg">
<path d="M0.839844 9.17969H1.67969V15C1.67969 15.4688 1.84245 15.8659 2.16797 16.1914C2.49349 16.5169 2.88411 16.6797 3.33984 16.6797H13.3398C13.7956 16.6797 14.1862 16.5169 14.5117 16.1914C14.8372 15.8659 15 15.4688 15 15V9.17969H15.8398C16.0742 9.17969 16.2728 9.09831 16.4355 8.93555C16.5983 8.77279 16.6797 8.57422 16.6797 8.33984C16.6797 8.22266 16.6569 8.11523 16.6113 8.01758C16.5658 7.91992 16.5039 7.83203 16.4258 7.75391L8.92578 0.253906C8.84766 0.175781 8.75977 0.113932 8.66211 0.0683594C8.56445 0.0227865 8.45703 0 8.33984 0C8.22266 0 8.11523 0.0227865 8.01758 0.0683594C7.91992 0.113932 7.83203 0.175781 7.75391 0.253906L0.253906 7.75391C0.175781 7.83203 0.113932 7.91992 0.0683594 8.01758C0.0227865 8.11523 0 8.22266 0 8.33984C0 8.57422 0.0813802 8.77279 0.244141 8.93555C0.406901 9.09831 0.605469 9.17969 0.839844 9.17969ZM8.33984 2.01172L13.3398 7.01172V10.8398V15H3.33984V7.01172L8.33984 2.01172ZM8.33984 12.5C9.26432 12.5 10.0521 12.1745 10.7031 11.5234C11.3542 10.8724 11.6797 10.0911 11.6797 9.17969C11.6797 8.25521 11.3542 7.46745 10.7031 6.81641C10.0521 6.16536 9.26432 5.83984 8.33984 5.83984C7.41536 5.83984 6.6276 6.16536 5.97656 6.81641C5.32552 7.46745 5 8.25521 5 9.17969C5 10.0911 5.32552 10.8724 5.97656 11.5234C6.6276 12.1745 7.41536 12.5 8.33984 12.5ZM8.33984 7.5C8.79557 7.5 9.1862 7.66276 9.51172 7.98828C9.83724 8.3138 10 8.71094 10 9.17969C10 9.63542 9.83724 10.026 9.51172 10.3516C9.1862 10.6771 8.79557 10.8398 8.33984 10.8398C7.88411 10.8398 7.49349 10.6771 7.16797 10.3516C6.84245 10.026 8.01758 0.524089 8.01758 0.0683594C8.01758 -0.400391 6.84245 8.3138 7.16797 7.98828C7.49349 7.66276 7.88411 7.5 8.33984 7.5Z" fill="#697A8D"/>
</svg>
